<svg xmlns="http://www.w3.org/2000/svg" width="700" height="561" viewBox="0 0 700 561"><path d="M0 0h700v561H0V0"/><path fill="#232425" d="M0 446.63a153.4 153.4 0 0 0 34.906-6.957c22.55-7.115 43.286-17.338 67.138-20.118-.245 3.646-.337 3.767-4.025 5.02-1.195.407-2.31 1.034-3.398 1.676 3.401-.436 5.09-.478 8.51-.176-4.56.938-9.135 1.632-13.694 2.58-16.247 3.379-31.54 10.07-47.183 15.474-14.061 4.856-27.5 7.71-42.254 9.111z"/><path fill="#535455" d="M0 444.632c28.672-2.197 47.724-11.871 74.439-20.58 3.756-1.225 25.224-7.16 27.61-5.907l-.005 1.41c-23.852 2.78-44.588 13.003-67.138 20.118-11.327 3.666-23.04 6-34.906 6.957z"/><path fill="#6e6d6e" d="m104.352 410.051.503.353c-.441 1.201-.698 2.339-1.606 3.179-3.496.87-7.325 1.257-10.909 1.936a179 179 0 0 0-17.07 4.19C53.074 426.322 23.057 439.77 0 439.91v-.738c4.843-.146 10.67-1.09 15.461-1.951 28.757-5.168 54.834-20.189 84.026-23.499 3.663-.415 3.661-.309 4.865-3.672"/><path fill="#6e6d6e" d="M126.91 402.335c3.191-5.232 6.888-9.932 13.448-10.877 14.443-2.083 29.638-3.026 44.226-3.194 4.412-.05 10.59 5.644 10.356 10.077-2.809-4.86-3.024-7.588-9.335-9.309-3.81-1.04-36.33 1.819-42.075 2.707-2.345.362-5.5.812-7.554 2.051-4.08 2.46-6.249 5.266-8.686 9.301-8.416.668-17.52-.419-22.435 7.313l-.503-.353c4.139-8.103 14.469-7.18 22.558-7.716"/><path fill="#3b3d3d" d="m0 461.132.407-.002c16.346-.192 41.382-8.747 56.297-14.967 1.625-.678 8.551-4.08 9.594-3.363-.552.494-3.739 1.703-4.69 2.113C41.59 453.543 21.944 460.536 0 461.719z"/><path d="M373.161 152.904c12.474-8.668 35.52-17.908 49.901-22.147 41.552-12.247 88.248-9.843 126.573 11.439 42.514 23.608 70.34 65.46 90.017 108.82 3.435 7.569 9.341 20.42 11.538 27.987 7.654 3.198 20.66 9.198 27.845 13.322 4.17 2.392-10.884 15.94-13.54 18.238-2.167 1.696-4.419 3.553-6.736 5.005 2.671 2.539 21.085 18.914 21.135 21.577.025 1.197-1.208 2.409-2.027 3.155-4.798 4.363-11.194 8.038-17.026 10.848 8.169 13.964 12.777 28.903 14.934 44.926.19 1.407 1.088 5.484-.63 6.378-1.068.44-3.784.599-4.977.646-14.39.089-28.849.063-43.228.058l-21.56.005c-3.66.022-15.123 1.005-17.34-1.584-.434-1.601-.165-4.14-.075-5.885-10.395.026-21.394.743-31.86.998a1344 1344 0 0 1-51.68.24c.794 3.565 2.686 13.493 1.318 17.088-.245.647-.964 1.116-1.703 1.19-12.37 1.245-105.705 1.521-112.497-1.257-2.28-2.889 1.427-11.826 2.854-14.871.585-1.082 1.041-1.676 1.074-2.882l-.531-.342c-20.016-1.012-62.568-3.784-80.504-5.425.467 14.113 3.614 12.44-12.676 12.226l-22.416-.385c-15.308-.271-30.726-.037-46.08-.837-.983-.051-1.248-.207-1.988-.808-2-3.6 3.086-20.281 4.33-24.606 8.424-29.277 21.516-54.412 44.16-75.072-2.999-6.728-4.523-10.18-6.492-17.226-20.183.29-49.217-8.024-63.42-23.065-13.271-14.058-22.223-33.553-22.506-53.05-.181-12.49 5.955-21.4 14.539-29.78 28.348-25.841 76.156-44.412 114.37-44.59 18.325-.085 44.17 6.495 56.904 19.666"/><path fill="#535455" d="M373.161 152.904c12.474-8.668 35.52-17.908 49.901-22.147 41.552-12.247 88.248-9.843 126.573 11.439 42.514 23.608 70.34 65.46 90.017 108.82 3.435 7.569 9.341 20.42 11.538 27.987 7.654 3.198 20.66 9.198 27.845 13.322 4.17 2.392-10.884 15.94-13.54 18.238l-.62-.285c2.807-2.538 14.924-13.825 14.335-17.162-2.411-1.759-7.904-4.134-10.84-5.505l-17.63-8.213a381 381 0 0 0-13.585-32.203c-14.155-30.293-30.347-56.64-54.687-79.998-46.274-44.405-111.383-53.35-170.86-31.85a202 202 0 0 0-24.198 10.311c-4.519 2.307-8.92 4.819-13.436 7.126-2.06 1.052-3.587-1.87-5.43-3.13-39.349-26.897-89.746-14.903-129.543 4.477-16.543 8.056-35.585 19.652-45.964 35.611-14.6 24.798 6.289 66.91 29.452 80.043 15.218 8.628 34.488 12.833 51.204 13.426 2.11 6.866 3.786 11.046 6.68 17.684-27.646 26.123-42.884 60.314-49.123 97.56-.11.659.07 1.416.38 1.992 5.099.788 12.656.734 17.984.842q16.201.32 32.406.452l16.496.24c3.892.09 11.854.503 15.292-.152.894-1.33-.126-9.125-.085-11.683 14.631.184 33.13 1.909 47.897 2.904l22.404 1.534c3.84.264 8.886.444 12.574.983-.534 1.258-1.035 2.458-1.642 3.685l-.56-.172c.586-1.082 1.042-1.676 1.075-2.882l-.531-.342c-20.016-1.012-62.568-3.784-80.504-5.425.467 14.113 3.614 12.44-12.676 12.226l-22.416-.385c-15.308-.271-30.726-.037-46.08-.837-.983-.051-1.248-.207-1.988-.808-2-3.6 3.086-20.281 4.33-24.606 8.424-29.277 21.516-54.412 44.16-75.072-2.999-6.728-4.523-10.18-6.492-17.226-20.183.29-49.217-8.024-63.42-23.065-13.271-14.058-22.223-33.553-22.506-53.05-.181-12.49 5.955-21.4 14.539-29.78 28.348-25.841 76.156-44.412 114.37-44.59 18.325-.085 44.17 6.495 56.904 19.666"/><path fill="#535455" d="M657.77 315.465c2.832-1.952 4.384-3.016 7.106-5.187l.619.285c-2.167 1.696-4.419 3.553-6.736 5.005 2.671 2.539 21.085 18.914 21.135 21.577.025 1.197-1.208 2.409-2.027 3.155-4.798 4.363-11.194 8.038-17.026 10.848 8.169 13.964 12.777 28.903 14.934 44.926.19 1.407 1.088 5.484-.63 6.378-1.068.44-3.784.599-4.977.646-14.39.089-28.849.063-43.228.058l-21.56.005c-3.66.022-15.123 1.005-17.34-1.584-.434-1.601-.165-4.14-.075-5.885-10.395.026-21.394.743-31.86.998a1344 1344 0 0 1-51.68.24c.794 3.565 2.686 13.493 1.318 17.088-.245.647-.964 1.116-1.703 1.19-12.37 1.245-105.705 1.521-112.497-1.257-2.28-2.889 1.427-11.826 2.854-14.871l.559.173c-1.232 3.633-3.54 8.659-3.446 12.469.013.51.163 1.389.617 1.688 3.545 2.328 102.505 2.478 111.868 1.161.505-.07.764-.34 1.034-.766 1.672-2.668-.764-13.992-1.438-17.274 13.705.003 27.416-.102 41.121-.315 14.684-.335 29.613-1.007 44.232-1.248-.115 1.481-.614 5.708.08 6.905 1.228.427 2.826.609 4.134.613 24.705.077 49.414.058 74.12-.043 2.41-.01 4.987-.017 7.329-.489 1.742-.352.144-6.686-.02-7.89-2.117-15.625-7.31-29.246-14.475-43.136a179 179 0 0 0 3.76-2.057c3.21-1.818 14.44-8.297 15.338-11.541-1.238-3.09-17.96-18.569-21.44-21.865"/><path fill="#232425" d="m211.875 248.676-.401-.527c-9.496-12.548-16.514-29.138-14.653-45.261 1.22-10.576 13.296-21.145 21.802-27.242 25.116-18.002 59.964-31.681 91.042-32.818 6.38-.233 13.16.511 19.38 1.444l6.577 1.353c8.253.928 23.84 9.174 29.882 15.022 2.17 6.752 4.037 15.392 5.684 22.399 4.425 18.83 7.738 33.735 15.729 51.363-3.332 7.911-8.03 14.472-12.897 21.484-8.151-12.584-10.744-22.708-12.463-37.439-3.202 10.29-7.449 20.703-13.323 29.767 5.256-22.286 8.726-41.991 5.57-65.119l-.117.381c-1.926 6.344-3.064 14.56-5.08 21.623-6.904 24.167-19.08 46.712-41.7 59.319-19.424 10.823-43.669 9.829-64.515 4.118-10.055-2.755-25.008-11.132-30.517-19.867"/><path fill="#535455" d="m211.875 248.676-.401-.527c-9.496-12.548-16.514-29.138-14.653-45.261 1.22-10.576 13.296-21.145 21.802-27.242 25.116-18.002 59.964-31.681 91.042-32.818 6.38-.233 13.16.511 19.38 1.444l-1.053 1.204c-39.024.05-85.363 19.682-114.211 46.213-4.103 3.773-6.506 8.036-8.284 13.272-.268.559-.583 1.004-.573 1.564-.999 15.63.715 25.784 7.337 40.059.305.658-.147 1.458-.386 2.092"/><path d="M233.991 198.553c3.21 3.682 4.26 6.278 1.455 10.846 3.62 7.21 7.039 16.803 1.87 24.15l-.458.725a13.66 13.66 0 0 1-5.782 3.46c-13.007 3.841-24.61-12.849-20.04-24.483.547-1.393 1.065-2.42 1.794-3.727-1.945-1.936-4.324-1.728-7.038-2.643l-.288-.1-.58-.256c-.01-.56.305-1.005.573-1.564 6.534-4.742 10.877-4.809 18.51-2.382 6.497 2.066 9.956 5.195 9.984-4.026"/><path fill="#232425" d="M205.504 206.781c2.678-.129 7.73-1.186 9.736-.316l.187.514c-.813 1.258-1.518 1.515-2.597 2.544-1.945-1.935-4.324-1.727-7.038-2.642z"/><path fill="#cac9c9" d="M221.634 209.176c4.019-.435 5.826 1.618 9.803 2.155 2.302 4.285 5.13 8.895 5.043 13.885-.024 1.337-.318 3.971-1.288 4.898-2.614-3.916-.531-3.9-5.28-7.945-6.396-3.78-12.42-2.419-13.346 5.748a45 45 0 0 1-1.117-2.516c-2.84-6.972-1.43-13.423 6.185-16.226"/><path fill="#cac9c9" d="M223.885 225.142a2.14 2.14 0 0 1 2.685 1.293 2.144 2.144 0 0 1-1.21 2.727 2.14 2.14 0 0 1-2.152-.33 2.144 2.144 0 0 1 .677-3.69"/><path fill="#535455" d="m329.045 144.272 6.577 1.353c-1.412.645-5.467-.082-7.63-.15z"/><path fill="#232425" d="m237.316 233.549 1.173-.001c.361 1.157.362.573-.159 1.803l-.874.68-.671-.098c-.242-.712-.104-.917.073-1.66z"/><path d="M306.107 171.249c4.004-.423 7.03.358 10.837 1.31-9.227 2.675-13.068 3.636-21.482 9.389 22.58 1.282 27.04 29.321 6.786 38.244-4.891 2.155-10.454 2.059-15.387.083a22.3 22.3 0 0 1-4.985-3.6c-5.196-5.055-7.373-12.009-7.483-19.112-2.392.996-5.343 1.991-7.934 1.024-2.998-1.119-7.193-4.637-5.774-8.24.222-.564.05-.482.543-.716.147.307.456.884.577 1.2 3.17 8.312 11.764-.297 15.423-3.219 8.671-6.926 17.51-14.838 28.88-16.363"/><path fill="#cac9c9" d="M292.603 187.664c17.495-1.03 25.391 18.234 10.471 28.044-.672.442-2.216 1.3-2.938 1.113 1.007-3.119.9-3.97.51-7.203-3.567-9.64-14.542-12.977-20.993-3.465-1.09-4.634-1.177-6.907-.225-11.565 4.6-4.165 7.07-5.893 13.175-6.924"/><path fill="#cac9c9" d="M288.605 206.248a2.79 2.79 0 0 1 2.832.498 2.8 2.8 0 0 1-1.1 4.813 2.798 2.798 0 0 1-1.733-5.311"/><path d="M284.295 246.584c7.363-.21 14.703 1.209 20.29 6.259-14.126-1.965-24.53-1.37-38.066 3.05-5.849 2.013-10.143 4.18-15.68 6.932l.168-.242.282-.399c7.174-10.297 20.97-14.876 33.006-15.6"/><path d="M274.9 259.498c3.966-.433 5.66.264 9.073 2.065-2.411.262-5.301.851-7.726 1.28q-4.198.435-8.389.94c2.64-2.178 3.893-2.99 7.041-4.286"/><path d="M318.474 202.26c1.551 4.144.338 5.455-2.482 8.352l-.233.1c-.16-.664 2.343-7.342 2.715-8.451"/><path d="M208.225 223.073c1.167.901 2.768 3.548 3.098 5.101-3.112.557-3.139-2.75-3.098-5.102"/><path fill="#232425" d="M404.931 260.01c.927.709 5.724 5.85 6.903 7.005a370 370 0 0 0 15.806 14.534c-12.29 2.129-20.195 6.847-27.846 16.508a72.3 72.3 0 0 1 50.42 7.223c18.854 10.11 34.604 31.845 40.708 51.992-10.477-11.919-17.588-17.601-31.705-24.798 17.576 23.146 27.719 40.687 32.49 69.274-12.436.06-26.85.408-39.08-.201.681-7.055 2.066-12.203 5.007-18.585-9.614 6.026-14.285 12.647-18.35 22.961l-13.898-.365c2.782-11.101 6.91-17.916 15.36-25.302-9.393 4.549-15.557 7.832-21.848 16.576-1.852 2.789-3.088 5.423-4.566 8.411-3.23.011-6.742-.201-9.993-.335a56.6 56.6 0 0 1 5.15-10.385c8.245-12.798 18.348-17.949 32.634-20.968-5.702-6.935-15.419-16.29-21.906-22.592-11.573-11.244-21.844-21.375-32.183-33.883-2.106 13.593 1.977 29.109 5.848 41.993-8.828-12.33-11.226-18.148-14.806-32.68-1.662 5.898-3.064 8.912-5.633 14.49-11.227 5.264-20.955 7.775-33.468 5.541-16.02-2.86-28.637-12.867-37.752-25.926a56.1 56.1 0 0 0 40.452 2.692c29.179-8.96 48.68-37.542 62.256-63.18"/><path fill="#232425" d="M543.469 250.644c-.055-2.744-.405-6.045-.195-8.793.075-.969 1.318-.98 2.337-1.828 1.113-.931.839-1.76 1.263-2.505.849-.538 4.738.442 5.477.221 3.306-.987 2.597-1.867 6.102-1.572l3.934.286c8.643 12.71 19.038 25.737 25.224 40.044 14.225.938 28.594 3.259 42.59 4.227 2.58.399 5.661.514 8.297.679l1.723 5.026-6.151 3.295c-9.232 4.629-16.482 7.707-26.468 10.28l-7.174-16.682c-2.582-.303-5.473-.517-8.079-.76l-1.722.303c-.305.936 6.096 16.884 6.95 19.21-28.944 5.281-50.174 2.206-77.15-8.54 1.348-5.596 2.74-18.797 3.455-24.873l-3.405-3.116c1.577-2.632-.245-4.366-1.942-6.248-.07-2.246.02-4.486.08-6.731 1.268-1.14 2.186-2.061 3.859-2.219-.32-3.947-.604-7.897-.864-11.848 1.393.11 3.066.195 4.424.376q.45 5.412.719 10.836c2.441.58 3.145.78 5.048 2.579.369-.773.439-.948.439-1.804l.514-.106c4.254 3.251 8.004 7.205 11.758 11.017-.164 4.295-.644 8.806-.754 12.948-.404-.082-1.308-.435-1.742-.589-1.553-.282-2.566.322-4.01.933l-.309-.335c-.724-.1-1.128.034-1.692.492-3.525 2.882-3.61 9.777-.69 13.098 5.228 5.95 16.547 2.93 17.036-5.422.2-3.33-1.033-5.34-3.175-7.642.46-5.595 1.208-11.109 1.503-16.748a226 226 0 0 0-7.21-7.489"/><path fill="#6e6d6e" d="m558.453 236.167 3.934.286c8.643 12.71 19.038 25.737 25.224 40.044 14.225.938 28.594 3.259 42.59 4.227 2.58.399 5.661.514 8.297.679l1.723 5.026-6.151 3.295c-9.232 4.629-16.482 7.707-26.468 10.28l-7.174-16.682c-2.582-.303-5.473-.517-8.079-.76-1.932-.317-5.737-.482-7.824-.638-4.903-9.623-9.291-18.15-15.373-27.181a168 168 0 0 0-6.071-8.289c-4-5.044-4.813-3.739-4.628-10.287"/><path fill="#232425" d="M630.2 280.725c2.581.397 5.662.512 8.298.678l1.723 5.026-6.151 3.295c-9.232 4.629-16.482 7.707-26.468 10.28l-7.174-16.682c4.553.217 9.376 1.144 14 1.402 5.632.315 2.341-1.193 4.219-2.9 2.461-.119 8.962.759 11.713 1.067.374-.175.43-.289.754-.579-.22-1.162.015-.618-.914-1.588"/><path fill="#535455" d="M630.2 280.725c2.581.397 5.662.512 8.298.678l1.723 5.026-6.151 3.295c-.814-2.301-1.448-5.998-3.71-6.832.374-.176.43-.29.754-.58-.22-1.162.015-.618-.914-1.588"/><path fill="#6e6d6e" d="M521.61 238.5c1.393.11 3.066.195 4.424.376q.45 5.412.719 10.836c2.441.58 3.145.78 5.048 2.579.369-.773.439-.948.439-1.804l.514-.106c4.254 3.251 8.004 7.205 11.758 11.017-.164 4.295-.644 8.806-.754 12.948-.404-.082-1.308-.435-1.742-.589-1.553-.282-2.566.322-4.01.933l-.309-.335.22-6.642-7.46-7.129q-.328.12-.664.226c-2.471.788-4.019.399-6.38-.777-2.866-1.426-3.715-5.408-1.833-7.942.52-.698.62-.939.894-1.743-.32-3.947-.604-7.897-.864-11.848"/><path fill="#232425" d="M531.8 252.291c.37-.773.44-.948.44-1.804l.514-.106c4.254 3.251 8.004 7.205 11.758 11.017-.164 4.295-.644 8.806-.754 12.948-.404-.082-1.308-.435-1.742-.589.195-2.062.06-5.944.05-8.14a526 526 0 0 1-8.977-8.307c-.105-2.358-.25-3.018-1.288-5.019"/><path d="M525.4 252.904a3.045 3.045 0 0 1 4.429 3.076 3.043 3.043 0 0 1-5.802.881 3.05 3.05 0 0 1 1.373-3.957"/><path fill="#3b3d3d" d="M424.608 234.507c11.51 11.463 21.76 22.447 34.099 33.142 31.794 27.56 70.437 47.594 113.301 47.536 25.698-.034 59.5-9.418 80.226-24.971 3.1 1.753 6.176 3.135 9.406 4.634-27.84 22.827-70.594 34.068-106.048 30.306-52.44-5.563-96.5-36.54-129.316-76.265a59 59 0 0 1-1.297-1.643c2.553-6.018-.535-7.997-.371-12.739"/><path fill="#6e6d6e" d="M425.294 142.016c34.127-12.317 78.297-9.844 111.135 5.572a132 132 0 0 1 14.03 7.617 206 206 0 0 1-10.24 10.666c-2.038 2.004-5.473 5.153-7.085 7.232.065 2.844.07 6.017.344 8.822l-4.359-.382-.409-7.51c2.017-1.751 4.249-3.573 6.221-5.335-2.187-.254-7.41-.651-9.277-1.904-.694-.469-.569-2.643-.594-3.655l.275-.461-.375-.715c-1.068.413-1.922.765-3.055 1.042-2.042-.079-2.881-.31-4.863-.786l-.235-.071c-1.967-1.943-1.683-1.234-3.375-3.67-.325-3.65.38-4.369 3.385-6.082.055-2.056-.305-5.024-.5-7.14-.948-2.118-8.952-3.374-11.158-3.097.075 2.186.619 8.52-.055 10.076-4.928-3.812-13.28-4.04-13.262 3.74-2.473-.303-4.32-.614-6.757-.048-.718.74-.45.292-.601 1.502l-.739 1.715c-.968.968-1.748 1.714-3.087 2.175-4.632 1.24-7.625.504-10.582-3.202-6.33.458-17.76.733-24.116.704-6.288-5.477-15.149-11.763-20.666-16.805"/><path fill="#232425" d="M434.765 144.048c21.064-4.782 41.595-6.341 62.954-3.21 1.698.249 6.196 1.618 7.44 1.32.075 2.187.619 8.52-.055 10.077-4.928-3.812-13.28-4.04-13.262 3.74-2.473-.303-4.32-.614-6.757-.048-.718.74-.45.292-.601 1.502l-.739 1.715c-.968.968-1.748 1.714-3.087 2.175-4.632 1.24-7.625.504-10.582-3.202-.17-1.18-.071-2.195-.018-3.382-4.748-.763-17.024-.065-22.225.114-3.792-3.647-8.871-7.492-13.068-10.801"/><path fill="#cac9c9" d="M470.058 154.735c4.649-4.946 13.599-4.679 14.426 2.694l-.739 1.715c-.968.968-1.748 1.714-3.087 2.175-4.632 1.24-7.625.504-10.582-3.202-.17-1.18-.071-2.195-.018-3.382"/><path d="M476.08 153.727c4.31.344 7.863 3.038 2.4 5.668a26 26 0 0 1-1.698-.103c-1.664-.167-2.331-.58-3.37-1.86-.6-2.286.79-2.801 2.668-3.705"/><path fill="#232425" d="M516.318 145.257c4.089 1.532 7.12 1.803 10.68 3.007 5.621 1.904 12.367 5.214 17.71 7.903-2.732 3.835-6.437 9.456-9.777 12.531-2.187-.254-7.41-.651-9.277-1.904-.694-.469-.569-2.643-.594-3.655l.275-.461-.375-.715c-1.068.413-1.922.765-3.055 1.042-2.042-.079-2.881-.31-4.863-.786l-.235-.071c-1.967-1.943-1.683-1.234-3.375-3.67-.325-3.65.38-4.369 3.385-6.082.055-2.056-.305-5.024-.5-7.14"/><path fill="#cac9c9" d="M516.817 152.397c2.776-.254 5.472-.272 7.829 1.645a5.44 5.44 0 0 1 2.007 4.083c.055 1.725-.65 2.562-1.693 3.838-1.068.413-1.922.765-3.055 1.042-2.042-.079-2.881-.31-4.863-.786l-.235-.071c-1.967-1.943-1.683-1.234-3.375-3.67-.325-3.65.38-4.369 3.385-6.082"/><path d="M518.82 154.693c2.416.258 4.957 1.138 4.952 3.948-.62 1.204-.794 1.212-2.037 1.898-4.484-.166-8.208-3.278-2.916-5.846"/><path fill="#6e6d6e" d="M488.435 183.447c12.145.339 36.206 3.061 48.174 5.252.19 1.463.3 3.075.4 4.553.908 13.381 2.226 26.87 2.416 40.28-5.627-.308-12.113-1.149-17.79-1.762l-29.714-3.21c-1.097-10.209-1.532-20.683-2.516-30.931-.432-4.496-.954-9.689-.97-14.183"/><path d="M494.949 188.9c11.578.592 24.49 2.473 36.143 3.728.29 11.237 1.932 23.18 2.201 34.855-11.184-.689-24.16-2.752-35.667-3.698-.606-10.451-2.634-25.086-2.677-34.884"/><path fill="#232425" d="M376.704 162.396c9.884-5.741 26.093-12.59 37.04-16.12 9.806 7.315 18.048 13.446 27.23 21.507 8.705.117 32.601 2.361 40.024 6.211 1.384 1.075 2.228 1.698 3.438 2.975-1.728 1.257-1.94 1.738-2.914 3.63-1.232.613-9.132.063-11.258.085-1.568 1.418-1.913 1.727-3.042 3.513.27.977.803 2.346.545 3.255-6.389.679-19.26-.615-26.154-.487-3.623.067-4.262-2.746-8.09-1.977-.05-1.575-.246-2.165-.643-3.644l1.574.085c-.017-.96-1.007-2.286-1.728-2.852-3.04-2.39-7.998-1.565-11.56-1.211-3.618-2.328-7.786-5.723-11.535-7.835-.691-.388-.143.149-1.198-.649-3.569.844-4.659 2.992-7.344 3.767-3.09-1.885-11.5-.19-15.259.401-1.568.5-5.006-1.728-6.774-2.59l-1.206-4.668c-.4-1.14-.787-2.241-1.146-3.397"/><path fill="#6e6d6e" d="M376.704 162.396c9.884-5.741 26.093-12.59 37.04-16.12 9.806 7.315 18.048 13.446 27.23 21.507 8.705.117 32.601 2.361 40.024 6.211-.75.882-1.732 1.877-2.536 2.739-16.106-4.12-22.734-4.96-39.073-5.341-7.2-6.609-17.436-13.993-25.352-20.198-8.916 2.714-21.888 7.95-30.248 12.059 3.012 2.19 3.234 2.945 5.01 6.268a373 373 0 0 0 17.729-1.937c1.165-.156 1.48.068 2.136.702l-.231.596c-3.569.844-4.659 2.992-7.344 3.767-3.09-1.885-11.5-.19-15.259.401-1.568.5-5.006-1.728-6.774-2.59l-1.206-4.668c-.4-1.14-.787-2.241-1.146-3.397"/><path fill="#232425" d="M377.85 165.792c7.576-.697 5.156 3.701 7.98 7.258-1.568.5-5.006-1.728-6.774-2.59z"/><path fill="#6e6d6e" d="m432.88 181.344 1.574.085c1.171-.023 2.414-.074 3.578-.033l3.346 2.27c7.239.108 18.934-.09 25.844.531.27.977.803 2.346.545 3.255-6.389.679-19.26-.615-26.154-.487-3.623.067-4.262-2.746-8.09-1.977-.05-1.575-.246-2.165-.643-3.644"/><path fill="#232425" d="M629.426 333.787c1.897 1.534 6.276 6.546 7.959 8.498 12.802 14.826 18.114 27.589 22.942 46.15-2.966.122-5.986.03-8.957-.019-4.12-10.604-6.466-15.605-15.763-22.385 1.433 3.407 2.227 6.957 3.16 10.536.905 4.673 3.221 13.85-4.837 11.355-1.798-.557-2.721-4.812-3.09-6.476-4.055-18.354-19.788-26.27-35.64-32.683 11.274-4.317 23.691-9.288 34.226-14.976"/><path fill="#232425" d="M460.334 226.615c3.536-.253 8.363-.232 12.033-.358 2.66 5.314 7.917 4.073 13.132 4.097.425 4.4 1.222 5.076 5.642 5.243.042 11.552.306 23.006-1.119 34.498-.243 1.963-.437 3.963-.64 5.932-12.942-9.167-24.86-18.823-35.687-30.431-.989-1.06-2.243-2.428-3.291-3.403-1.207-1.254-2.5-2.775-3.672-4.09 3.908-3.659 9.333-7.651 13.602-11.489"/><path fill="#6e6d6e" d="M460.334 226.615c2.57.569 2.283 2.909 2.73 5.397-2.099 1.752-2.95 2.131-5.024 3.63-2.536 1.833-5.32 4.422-7.636 6.551-1.207-1.254-2.5-2.775-3.672-4.09 3.908-3.659 9.333-7.651 13.602-11.489"/><path fill="#232425" d="M558.622 160.694c11.389 8.873 20.496 17.264 29.743 28.473 2.746 3.325 5.762 6.651 8.178 10.226l-26.337-3.724-6.361 11.005c-5.467-.625-10.88-1.196-16.362-1.613-1.228-.094-3.085-1.742-2.98-3.243 2.775-3.228 12.656 1.371 16.875-.176.64-.739.71-.997 1.094-1.868-1.443-1.838-1.179-1.311-2.791-1.897-3.56-1.293-4.893-5.381-8.558-8.527-3.24-.165-4.923-.421-7.949-1.534-.684-4.059-2.541-3.591-2.95-7.638.04-.666-.035-1.535.34-1.958 5.077-5.708 12.556-12.399 18.058-17.526"/><path fill="#6e6d6e" d="M558.622 160.694c11.389 8.873 20.496 17.264 29.743 28.473 2.746 3.325 5.762 6.651 8.178 10.226l-26.337-3.724-6.361 11.005c-5.467-.625-10.88-1.196-16.362-1.613-1.228-.094-3.085-1.742-2.98-3.243 2.775-3.228 12.656 1.371 16.875-.176.64-.739.71-.997 1.094-1.868a557 557 0 0 1 5.097-8.89c6.766 1.127 13.366 1.712 19.972 3.735 1.168.357 3.565.565 4.823.694-2.387-2.984-13.645-16.436-16.531-17.208-.255.089-1.184.419-1.283.337-3.38-2.74-12.637-10.652-15.578-12.948-4.873 4.7-9.072 8.62-14.135 13.103-2.247.344-2.741.433-4.613 1.581.04-.666-.035-1.535.34-1.958 5.077-5.708 12.556-12.399 18.058-17.526"/><path fill="#232425" d="M583.676 208.09c2.437-1.627 15.269.64 19.258.899 7.2 12.14 12.747 22.217 18.998 34.89 1.358 1.643 4.01 8.31 4.913 10.49-2.916-.524-8.563-.934-11.688-1.269 2.156-5.776-.03-11.534-6.177-13.143-.629-.165-4.044-.731-4.308-1.016-2.806-3.061-4.364-7.36-7.135-10.455a569 569 0 0 0-11.065-1.71c-1.218-2.127-2.586-4.314-3.854-6.422 2.786-1.335 5.143-2.63 3.665-6.155-.205-.626-.355-1.728-.47-2.42-.734-1.841-.973-2.136-2.137-3.69"/><path fill="#6e6d6e" d="M583.676 208.09c2.437-1.627 15.269.64 19.258.899 7.2 12.14 12.747 22.217 18.998 34.89-.624-.282-1.094-.632-1.438-1.23-5.862-10.054-12.033-19.554-18.589-29.163l-16.092-1.707c-.734-1.841-.973-2.136-2.137-3.69"/><path fill="#232425" d="M566.191 228.466c-4.268-.603-19.711-1.303-20.26-5.625.414-1.301.11-.91 1.073-1.758 3.016-.258 11.963 1.642 15.897 2.113 3.595-.094 10.725-.785 14.604-1.095 2.202 3.01 3.735 5.952 5.642 9.122 3.555.631 7.854.949 11.134 1.648 1.333 2.458 4.868 9.281 6.436 11.418l-.115.229c-.184 1.838-.33 2.688-.1 4.526l-.868.234c-5.273-.262-13.915-1.63-19.617-2.19a799 799 0 0 0-13.826-18.623"/><path fill="#6e6d6e" d="M566.191 228.466c-4.268-.603-19.711-1.303-20.26-5.625.414-1.301.11-.91 1.073-1.758 3.016-.258 11.963 1.642 15.897 2.113 1.793.335 3.34.478 5.153.655 3.934 5.198 9.826 13.925 13.63 18.39l18.918 2.277c-.184 1.838-.33 2.688-.1 4.526l-.868.234c-5.273-.262-13.915-1.63-19.617-2.19a799 799 0 0 0-13.826-18.623"/><path fill="#6e6d6e" d="M509.622 237.433c1.433.115 3.365.212 4.738.446.315 6.748.844 15.708.625 22.384 1.587 1.546 3.86 3.907 5.492 5.283l3.405 3.116c-.714 6.076-2.107 19.278-3.455 24.874l-4.589-2.075c-3.42-1.776-7.15-3.63-10.44-5.586.74-7.494 1.673-13.93 2.222-21.688 2.477-3.127 1.358-2.367 2.571-4.999.25-7.559.17-14.188-.569-21.755"/><path fill="#232425" d="M507.62 264.187c2.477-3.127 1.358-2.367 2.571-4.999-.054 2.767.26 2.991 2.372 5.12 2.017 2.032 4.04 3.603 6.081 5.735-.579 7.27-1.672 14.228-2.806 21.418-3.42-1.776-7.15-3.63-10.44-5.586.74-7.494 1.673-13.93 2.222-21.688"/><path fill="#232425" d="M329.505 356.995c14.289 6.658 29.136 11.247 44.018 16.255 2.804.944 5.21 1.388 8.123 2.472l.081.319-.78.067c-3.23.21-8.507.163-11.63-.238-14.625-.063-29.42-1.35-43.863-1.428-1.335.136-4.259-.081-5.726-.151l-.399-.163c1.222-4.004 7.604-13.585 10.176-17.133"/><path fill="#6e6d6e" d="M329.505 356.995c14.289 6.658 29.136 11.247 44.018 16.255 2.804.944 5.21 1.388 8.123 2.472l.081.319-.78.067c-1.905-.341-2.167.062-4.32-.846l.5-.053c-3.574-1.383-8.058-2.593-11.82-3.829a540 540 0 0 1-23.472-8.18c-4-1.501-8.477-3.029-12.093-5.226-3.425 4.511-7.663 13.473-10.014 16.317l-.399-.163c1.222-4.004 7.604-13.585 10.176-17.133"/><path fill="#535455" d="M325.454 374.442c3.223-2.106 41.94 1.207 48.87.837.419-.022.675.203.946.482-1.758.253-3.961.002-5.952.108-14.626-.062-29.422-1.349-43.864-1.428"/><path fill="#232425" d="M561.588 362.826c3.03 2.222 13.016 12.77 16.142 16.024-13.61.432-24.555.626-38.25.326-4.649-.526-12.093-.733-17.126-1.103 12.892-4.672 26.692-9.747 39.234-15.248"/><path fill="#232425" d="M580.017 247.089c5.702.559 14.344 1.927 19.617 2.189-2.142 2.689 2.246 6.032 4.393 7.152 1.663.868 3.16 1.135 4.963 1.459 1.244 1.318 4.489 4.629 5.303 6.007 2.621.152 7.065.258 9.516.545l1.877 4.957.13.804c-.504.274-.364.265-.903.355-10.595-1.188-21.255-2.042-31.81-3.251l-3.066-5.494c-2.281-4.183-7.104-10.66-10.02-14.724"/><path fill="#6e6d6e" d="M590.037 261.812c8.099.56 16.177 1.553 24.256 2.084 2.621.152 7.065.258 9.516.545l1.877 4.957.13.804c-.504.274-.364.265-.903.355-10.595-1.188-21.255-2.042-31.81-3.251z"/><path fill="#232425" d="M420.145 204.005q23.105-.3 46.209.122l.235 4.209c-5.688-.07-16.806-.559-22.015-.16-1.69 2.44-6.015 5.978-8.439 7.738-2.006 1.662-4.51 3.504-6.396 5.15l-2.523-2.234c-3.452-3.156-9.29-7.681-13.044-10.41-1.818-1.42-3.987-2.768-5.933-4.041 3.905.004 7.988-.217 11.906-.374"/><path fill="#6e6d6e" d="M420.145 204.005q23.105-.3 46.209.122l.235 4.209c-5.688-.07-16.806-.559-22.015-.16l-.01-.034c-.487-.029-.438-.013-.922.059l-12.9-.084c-2.178-1.52-8.225-2.263-11.022-3.547z"/><path fill="#3b3d3d" d="M408.239 204.379c3.905.004 7.988-.217 11.906-.374l-.425.565c2.797 1.284 8.844 2.026 11.022 3.547-5.517.119-11.114-.099-16.57.303-1.818-1.42-3.987-2.768-5.933-4.041"/><defs><linearGradient id="a" x1="860.289" x2="866.273" y1="439.782" y2="430.177" gradientUnits="userSpaceOnUse"><stop offset="0" stop-color="#262628"/><stop offset="1" stop-color="#404041"/></linearGradient></defs><path fill="url(#a)" d="m868.681 430.081.516 1.42c1.758.397 2.557.329 4.319.326-4.018 3.325-9.032 7.008-12.811 10.301l-5.053-4.469c3.901-2.94 8.387-6.051 13.029-7.578" transform="scale(.49929 .5)"/><path fill="#535455" d="M443.642 208.201c.484-.072.435-.088.922-.059l.01.035c-1.69 2.44-6.015 5.977-8.439 7.737-.88.001-1.278.035-2.156-.163l-.258-.71c3.413-.023 7.28-4.343 9.921-6.84"/><path fill="#6e6d6e" d="M388.978 177.432c6.265-.965 12.043-1.627 18.183-2.489 2.998 2.001 5 3.696 7.76 6.012 1.451.65 2.136.811 3.7.871l.32-.05c3.757-4.849 9.692-4.345 13.94-.433.396 1.48.592 2.07.641 3.645-3.195 6.18-10.342 5.307-14.663.787a231 231 0 0 1-19.17 1.26c-2.45-1.567-5.122-1.986-7.254-3.445l-.382.095a508 508 0 0 0-9.42-5.503q3.17-.399 6.345-.75"/><path fill="#232425" d="M388.978 177.432c6.265-.965 12.043-1.627 18.183-2.489 2.998 2.001 5 3.696 7.76 6.012 1.451.65 2.136.811 3.7.871-1.693.397-4.602.24-6.604.413-6.47.564-13.128.802-19.582 1.351l-.382.095a508 508 0 0 0-9.42-5.503q3.17-.399 6.345-.75"/><defs><linearGradient id="b" x1="788.577" x2="815.042" y1="345.561" y2="365.454" gradientUnits="userSpaceOnUse"><stop offset="0" stop-color="#6c6b6b"/><stop offset="1" stop-color="#a6a7a7"/></linearGradient></defs><path fill="url(#b)" d="M779.066 354.863c12.549-1.93 24.121-3.253 36.419-4.977 6.005 4.003 10.014 7.392 15.543 12.024-2.516.351-5.672.474-8.257.652-1.792-1.21-5.097-3.452-7.014-4.103-9.419-3.199-28.161 1.403-36.691-3.596" transform="scale(.49929 .5)"/><path fill="#cac9c9" d="M418.941 181.777c3.757-4.85 9.692-4.346 13.94-.433.396 1.479.592 2.07.641 3.644-1.397.223-2.092.335-3.5.338-3.305 1.786-6.442 2.305-8.253-1.608-.365.626-.144.338-1.13.649-1.856-.34-1.627-1.06-1.698-2.59"/><path d="M421.769 183.718c2.34-4.962 9.539-3.28 8.253 1.608-3.305 1.786-6.442 2.305-8.253-1.608"/><path fill="#6e6d6e" d="M405.336 194.142a559 559 0 0 1 48.027-.573c3.397.102 6.815.125 10.199.305 1.142.061 1.65 1.144 1.917 2.048-.641 1.623-1.555 2.047-3.32 2.012-16.955-.332-34.097-.835-51.042-.091-1.342-2.1-3.705-2.395-5.78-3.701"/><path fill="#232425" d="M391.079 207.42c6.274 3.477 28.42 21.078 33.529 27.087-.164 4.742 2.924 6.721.371 12.74-5.86-6.74-11.692-14.546-17.419-21.531a264 264 0 0 0-16.481-18.296"/><path fill="#dc1d20" d="M385.597 250.838c3.197.575 4.55 2.804 6.828 4.89 4.787 4.387-2.762 13.476-6.283 16.32-2.933-.548-6.648-5.709-8.365-8.137-1.828-2.585 5.515-11.955 7.82-13.073"/><path fill="#dc1d20" d="M372.874 266.941c1.302-.018 2.142.014 3.169.978 9.696 9.106 5.863 11.035-2.763 18.89-1.379.451-2.437.494-3.435-.66-2.327-2.691-4.368-6.631-5.804-9.856 1.39-2.128 6.777-7.807 8.833-9.352"/><path fill="#6e6d6e" d="M491.842 155.975c-.018-7.78 8.334-7.552 13.262-3.74 2.426 3.604 1.832 5.594-1.483 8.259l5.831 5.863c.225 4.23.724 8.864.854 12.969l-4.658-.382c-.27-4.165-.52-8.268-.949-12.421l-5.077-5.358c-3.691-.744-6.155-1.379-7.78-5.19"/><path d="M497.7 152.34c2.466.077 5.561.628 5.511 3.696-.584 1.25-.848 1.304-2.057 2.1-2.665.088-6.02-.297-5.76-3.695.719-1.284.978-1.322 2.305-2.102"/><path fill="#dc1d20" d="M359.431 280.264c3.52.356 7.983 8.125 7.613 11.058-.282 2.238-7.091 6.21-9.37 7.642-.295.11-1.174.23-1.534.291-2.907-.818-6.188-9.115-5.853-11.891.207-1.718 7.42-5.998 9.144-7.1"/><path fill="#dc1d20" d="M343.506 289.936c.455-.062 1.737-.25 2.037-.03 2.863 2.11 5.663 9.559 4.551 12.666-1.678 2.055-6.404 3.373-9.066 4.346-2.076.517-3.21.712-4.376-1.46-1.435-2.674-2.981-7.814-2.241-10.757 1.086-1.762 6.751-3.662 9.095-4.766"/><path fill="#6e6d6e" d="m498.135 236.3 4.273.27c.908 19.017.933 27.658-1.478 46.765l-4.433-2.723a193 193 0 0 0 2.03-30.389c-.021-4.403-.716-9.737-.392-13.923"/><path fill="#dc1d20" d="M326.603 295.5c3.431-.803 4.349 2.344 4.933 5.034 2.023 9.318.807 9.041-6.923 9.894-.941.049-3.102.226-3.879-.113-4.256-1.852-3.672-10.312-2.065-13.539 1.394-.652 6.055-1.007 7.934-1.276"/><path fill="#dc1d20" d="M393.58 232.475c1.838.656 7.73 5.99 8.335 7.695 1.314 3.704-2.001 12.367-5.46 14.311-2.337-1.772-6.906-6.22-8.95-8.37 2.19-4.84 4.038-8.614 6.075-13.636"/><path fill="#3b3d3d" d="M271.882 323.139c.003.97-7.017 11.976-8.191 14.217a285 285 0 0 0-10.292 22.356c-1.481 3.664-3.397 9.454-4.952 12.774-2.049 4.372-4.226 6.381-6.417 11.719-.76-1.787 1.864-8.685 2.522-10.82 5.642-18.303 13.81-36.377 27.33-50.246"/><path fill="#6e6d6e" d="M538.007 274.69c1.443-.611 2.456-1.215 4.009-.933.434.154 1.338.507 1.742.589 6.187 2.829 8.024 10.918 1.134 13.889-6.69 2.885-13.825-4.551-9.237-11.046.614-.969 1.703-1.674 2.352-2.499"/><path d="M540.768 277.157a4.256 4.256 0 0 1 5.083 3.072 4.263 4.263 0 0 1-2.926 5.175 4.25 4.25 0 0 1-4.19-1.067 4.26 4.26 0 0 1-1.098-4.191 4.26 4.26 0 0 1 3.13-2.99"/><path fill="#dc1d20" d="M303.847 294.916c8.394 1.558 11.12-.329 10.705 10.197-.103 2.62.848 2.704-1.104 5.084-2.566-.317-7.277-.783-9.364-2.166-3.303-2.189-2.401-10.34-.237-13.115"/><path fill="#232425" d="M502.263 333.39c4.074.957 9.182 2.637 13.366 3.776a380 380 0 0 0 21.863 5.279c-.753.565-2.166.716-3.185.932a488 488 0 0 1-17.09 3.19c-4.38-4.377-10.106-9.298-14.954-13.177"/><path fill="#6e6d6e" d="M451.334 214.991a468 468 0 0 1 15.941.021c.177 1.289.244 2.947.335 4.273q-6.983-.18-13.969-.186l-6.122 5.017-7.716 6.402-3.512-3.604c4.98-4.017 10.058-7.87 15.043-11.923"/><path fill="#cac9c9" d="M600.717 244.289c8.203-12.143 20.171 10.405 6.301 11.028-3.21.144-5.532-3.577-6.516-6.273-.23-1.839-.084-2.689.1-4.526z"/><path d="M605.236 243.644c5.162.288 7.444 5.356 3.3 8.721-5.168-.188-7.33-5.169-3.3-8.722"/><path fill="#535455" d="M571.749 217.85c-7.645-.507-15.833-1.904-23.502-2.669-2.486-.248-3.1-1.85-2.481-4.167 1.642-1.066 21.01 2.052 24.804 2.516 1.248-.572 3.05-1.353 3.775-2.478.294 2.281.384 2.807 1.388 4.918-1.298.393-2.756 1.239-3.984 1.88"/><path fill="#cac9c9" d="M574.345 211.052c1.533-5.078 5.217-5.755 9.331-2.963 1.164 1.554 1.403 1.849 2.137 3.69.115.692.265 1.794.47 2.42-1.843 5.795-6.756 6.052-10.55 1.771-1.004-2.111-1.094-2.637-1.388-4.918"/><path d="M578.604 209.358c4.433.056 6.77 3.688 3.25 6.86-4.274-.078-6.506-3.431-3.25-6.86"/><path fill="#dc1d20" d="M292.122 288.898c3.006 1.575 5.097 2.775 7.956 4.605-.887 3.939-.672 8.292-1.61 11.75-5.015-2.774-5.957-4.095-8.281-9.083.415-2.574 1.066-4.828 1.935-7.273"/><path fill="#232425" d="M611.312 378.19c1.358-.034 2.022.045 2.99 1 .09.473-1.662 12.33-1.912 13.9-.659.413-2.017.263-2.88.248-1.488.039-2.107.089-3.59-.192-2.017-2.644 2.81-12.512 5.392-14.956"/><path fill="#232425" d="m262.936 376.49.19.078c.22.788-1.208 2.539-1.74 3.401-2.258 3.654-3.84 7.485-4.954 11.61l-6.568-.046-.352-.135c-.684-1.847 3.202-7.642 4.616-9.158 2.71-2.907 5.213-4.28 8.808-5.75"/><path fill="#6e6d6e" d="M517.042 162.219c1.982.477 2.82.707 4.863.786-.115 5.07.609 12.314.784 17.669-1.194-.198-3.316-.303-4.594-.402-.41-5.958-.909-12.096-1.053-18.053"/><path fill="#232425" d="m275.525 377.486.273.158c.023.064-2.407 12.288-2.59 14.002l-5.612.065-.223-.11c-1.757-3.084 5.241-12.051 8.152-14.115"/><path fill="#3b3d3d" d="M392.162 194.787c4.038-.442 9.044-.499 13.174-.645 2.076 1.306 4.439 1.602 5.78 3.701-4.264.305-8.693.313-12.982.379-2.088-1.143-3.949-2.175-5.972-3.436"/><path fill="#232425" d="M483.745 159.145c5.478 3.053 7.702 4.582 12.743 8.575l-5.035.405c-2.62-1.323-8.106-5.042-10.795-6.806 1.339-.46 2.119-1.207 3.087-2.174"/><path fill="#232425" d="M623.81 264.441c1.357.096 3.364.183 4.653.37 1.368.106 2.471-.072 3.36 1.022 1.073 1.322 1.927 4.104 2.531 5.776-1.253-.121-8.767-.715-9.441-1.052.539-.09.399-.081.903-.355l-.13-.805z"/><path fill="#232425" d="M623.81 264.441c1.357.096 3.364.183 4.653.37-2.417.983-2.147 2.054-2.777 4.587z"/><path fill="#6e6d6e" d="m496.488 167.72.78 10.349-4.675-.179c-.33-2.777-.677-7.164-1.14-9.765z"/><path fill="#3b3d3d" d="m392.053 183.685.382-.095c2.132 1.46 4.804 1.877 7.254 3.445-4.057.213-8.952.79-13.037.719-.842-.015-3.173-1.409-3.944-1.898l-.06-.547c1.856-1.347 6.944-1.435 9.405-1.624"/><path fill="#cac9c9" d="M476.538 221.835c3.609-.07 11.078.577 6.026 5.786-3.594.053-11.246-.497-6.026-5.786"/><path fill="#6e6d6e" d="M475.517 212.167c3.389-.018 11.355.174 6.356 5.51-3.096-.191-11.306-.454-6.356-5.51"/><path fill="#6e6d6e" d="M473.612 193.012c2.725.024 7.006-.447 8.025 2.574-.098 1.374-.322 1.567-1.194 2.662-2.712-.036-7.49.413-8.281-2.786.26-1.333.465-1.418 1.45-2.45"/><path fill="#6e6d6e" d="M474.622 202.605c2.794.049 6.84-.44 7.956 2.566-.112 1.399-.217 1.457-1.065 2.643-3.145.018-11.725.172-6.89-5.209"/><path fill="#232425" d="M516.113 166.958c-2.317-1.035-9.007-4.43-6.57-8.108 1.367-2.061 1.872-.07 3.889-.371 1.692 2.435 1.408 1.726 3.375 3.668-1.034 1.059-.704 3.19-.694 4.81"/><path fill="#cac9c9" d="M473.115 183.809c2.694-.024 6.632-.508 7.605 2.52-.215 1.397-.374 1.546-1.325 2.609-2.612-.031-7.11.329-7.888-2.707.304-1.343.561-1.494 1.608-2.422"/><path fill="#929294" d="m532.59 239.663 4.643.394c.27 2.649.52 5.583.19 8.214-6.057-.297-4.869-3.431-4.834-8.608"/><path fill="#cac9c9" d="M544.842 191.527c3.3.099 9.277.4 6.076 5.312-3.635.114-9.087-.258-6.076-5.312"/><path fill="#cac9c9" d="M547.563 229.651c3.645-.09 8.248.763 5.337 5.447-3.754.342-8.792-.98-5.337-5.447"/><path fill="#dc1d20" d="M289.555 286.745c.773.441.797.53 1.381 1.168.01 1.19-.785 3.674-1.075 5.334l-.143.151-.47-.024c-.84-2.087-.163-4.476.307-6.629"/><path fill="#232425" d="m36.581 328.706-.062-41.414c-.028-6.632-.282-13.44.26-20.038.14-1.704 1.9-4.239 3.087-5.461 3.986-4.102 10.632-3.073 16.062-3.075l21.586.005 40.122.018c7.104.002 14.262-.015 21.316.06 3.691.04 8.616 3.904 8.848 7.608.556 8.888.316 18.362.304 27.264l-.154 55.955.067.398c-.337 5.816 1.59 17.679-2.22 22.106-2.423 2.813-6.433 3.171-9.55 3.172-19.999.002-40.029-.094-60.017-.106l-20.206.088c-7.697.053-18.569 1.717-19.219-9.005-.274-4.53-.21-8.978-.226-13.516q-.097-12.03.002-24.06"/><defs><linearGradient id="c" x1="175.368" x2="195.676" y1="666.632" y2="507.704" gradientUnits="userSpaceOnUse"><stop offset="0" stop-color="#444647"/><stop offset="1" stop-color="#626465"/></linearGradient></defs><path fill="url(#c)" d="m73.267 657.411-.124-82.827c-.056-13.265-.566-26.879.521-40.077.28-3.407 3.804-8.477 6.182-10.921 7.983-8.204 21.294-6.146 32.17-6.149l43.234.009 80.357.036c14.23.003 28.565-.03 42.694.121 7.393.079 17.257 7.806 17.721 15.215 1.114 17.776.633 36.723.608 54.528l-.307 111.91c-1.98-7.162.656-38.886-.882-44.197l-.647.273c-1.45 3.939.444 11.298-.788 15.085-1.384-36.088-5.444-71.796-4.451-108.164.198-7.22 1.052-32.408-9.237-33.229-31.798-2.538-65.571-1.38-97.737-1.362l-52.914.071c-8.719-.002-29.815-.976-37.374 1.536-4.106 2.84-5.498 4.223-7.845 8.856-1.402 8.009-.958 23.852-.974 32.556l-.08 55.03c-.007 5.143.332 19.793-.793 24.012l.01-.004c-4.018 2.723-5.763 4.341-9.344 7.692" transform="scale(.49929 .5)"/><path fill="#6e6d6e" d="m42.164 269.063-.44-.16c-.164-1.983 2.144-4.571 4.357-4.269-2.05 1.42-2.745 2.112-3.917 4.428"/><path d="M78.323 283.84c3.903-.435 28.307-.308 31.767.383a25.3 25.3 0 0 1 8.891 3.71 25.26 25.26 0 0 1 10.828 16.019c1.005 4.967.98 28.432.04 33.272a25.4 25.4 0 0 1-3.88 9.447c-4.351 6.404-10.443 9.625-17.885 10.993-4.629.271-27.535.376-31.768-.486a26.7 26.7 0 0 1-9.733-4.173c-10.937-7.496-11.285-18.728-10.885-30.71.195-5.805-.478-11.698.732-17.458a27.5 27.5 0 0 1 4.247-9.97c4.357-6.315 10.253-9.622 17.646-11.026"/><path fill="#232425" d="M60.866 328.786c-.092-14.2-3.355-35.127 15.348-39.833 7.313-1.84 16.302-.27 23.909-.81 5.486-.39 10.212.127 15.055 2.881 3.65 1.436 7.164 6.135 8.713 9.664a23.8 23.8 0 0 1 1.802 6.8c.356 3.164.173 8.02.099 11.34-.144 6.475.9 15.147-1.453 21.172a20.26 20.26 0 0 1-10.774 11.202 20.8 20.8 0 0 1-5.734 1.555c-4.484.531-10.596.163-15.205.181-6.289.026-13.138.7-19.015-1.667-9.264-3.78-13.58-12.773-12.745-22.485"/><path fill="#535455" d="M60.866 328.786c-.092-14.2-3.355-35.127 15.348-39.833 7.313-1.84 16.302-.27 23.909-.81 5.486-.39 10.212.127 15.055 2.881-2.456.5-7.194-1.361-9.673-1.168-12.214.952-29.24-3.483-37.669 7.73-7.749 10.309-3.336 24.405-5.792 35.42l-.309-.136a81 81 0 0 1-.869-4.084"/><path d="M86.85 346.534c-1.21-1.733-.517-7.866.888-9.62 2.422-3.022 3.224-3.296 6.778-4.037 5.281 1.375 4.92 2.178 6.98 6.668 1.618.908.982 5.781.88 7.53-2.97.033-13.569.457-15.526-.541"/><path fill="#535455" d="M101.495 339.546c1.62.907.983 5.78.88 7.53-2.97.032-13.568.456-15.525-.542 3.93-.37 10.653-.18 14.787-.187.06-2.214-.065-4.577-.142-6.801"/><path d="M102.258 301.456c1.82-.117 6.51-.661 7.55.744 1.337 2.683.739 17.829.712 21.868-1.831.055-6.934.42-8.291-.411-.21-6.586-.167-15.716.029-22.201"/><path fill="#535455" d="M109.809 302.2c1.336 2.683.738 17.829.71 21.868-1.83.055-6.933.42-8.29-.411 1.802-.315 5.481-.234 7.449-.245.002-6.98-.092-14.265.13-21.211"/><path d="M76.818 301.484c2.285-.196 5.011-.132 7.336-.136.225 7.262-.402 14.616.058 22.024l-7.587.118c.008-6.527-.245-15.697.193-22.007"/><path fill="#535455" d="M84.212 323.372c.706-5.18-.644-17.1.505-21.089.716 3.16.436 18.03.422 21.885-2.309.024-6.633.336-8.514-.678z"/><path d="M133.694 362.639a3.693 3.693 0 0 1 4.843 1.763 3.703 3.703 0 0 1-1.626 4.898 3.69 3.69 0 0 1-3.75-.206 3.703 3.703 0 0 1 .533-6.455"/><path d="M49.55 362.612a3.634 3.634 0 0 1 4.61 2.323 3.64 3.64 0 0 1-2.356 4.599 3.634 3.634 0 0 1-4.556-2.342 3.64 3.64 0 0 1 2.303-4.58"/><path d="M49.243 269.531a3.557 3.557 0 0 1 4.673 1.784 3.566 3.566 0 0 1-1.721 4.702 3.56 3.56 0 0 1-3.572-.313 3.566 3.566 0 0 1 .62-6.173"/><path d="M133.593 269.58a3.53 3.53 0 0 1 4.697 1.728 3.54 3.54 0 0 1-1.737 4.7 3.533 3.533 0 0 1-4.682-1.736 3.54 3.54 0 0 1 1.722-4.692"/><path fill="#232425" d="M129.112 410.883c2.419-13.869 10.62-15.853 23.015-16.469 4.47-.222 8.829-.749 13.387-.775-1.664 1.688-2.275 2.667-3.326 4.74-3.798 10.608-2.173 28.584 1.137 39.347-20.748.577-35.091 3.375-34.804-22.134.011-1.013.08-3.98.591-4.709"/><path fill="#535455" d="M129.112 410.883c2.419-13.869 10.62-15.853 23.015-16.469 4.47-.222 8.829-.749 13.387-.775-1.664 1.688-2.275 2.667-3.326 4.74-4.455-.809-23.099.964-27.323 4.131-3.329 2.497-4.144 6.952-5.753 8.373"/><path fill="#232425" d="M175.099 392.789c2.048-.704 8.598-.671 10.741-.494 3.173 2.046 4.096 3.24 5.558 6.758-3.433.048-7.21-.017-10.58.488-3.867 4.297-4.584 8.654.51 12.389 3.667-.062 7.781-.037 11.38-.433.367 3.145.58 6.18.806 9.333-3.542.105-7.625.149-11.125.512-2.373 2.166-3.159 3.337-3.285 6.739-.305 8.263 8.394 5.511 13.677 5.642-1.741 7.397-6.739 10.761-14.17 8.702a10.39 10.39 0 0 1-6.32-5.122c-.68-1.276-1.282-2.776-1.802-4.127-1.695 1.475-2.215 1.401-2.556 3.408-2.854-3.714-5.549-27.437-3.232-31.333.654-6.848 2.788-11.958 10.398-12.462"/><path fill="#535455" d="m175.099 392.789.793.345c-.702.685-1.373 1.063-1.943 1.654-1.004 1.038-1.91 3.404-3.187 3.985-1.299-.164-2.296-.472-3.403.106-1.593 2.173-1.132 5.736-2.658 6.372.654-6.848 2.788-11.958 10.398-12.462"/><path fill="#535455" d="M159.958 102.352c-.52-1.243-.489-3.112-.416-4.449.639-11.705 12.536-18.332 23.3-17.447 6.03.496 9.648 2.214 13.57 6.631 2.556 2.52 4.03 7.54 4.136 11.043.28 9.135-7.284 12.918-9.544 20.529-.339 1.14.486 4.738.838 6.082-2.38.689-7.766 2.025-9.792 2.868-.132-.033-.501-.317-.635-.41-7.155-18.306 14.006-20.196 4.961-33.651-7.626-5.39-15.67-1.611-15.573 8.314-2.031.145-9.496.966-10.845.49"/><path fill="#929294" d="M159.958 102.352c-.52-1.243-.489-3.112-.416-4.449.639-11.705 12.536-18.332 23.3-17.447 6.03.496 9.648 2.214 13.57 6.631-1.712-.234-3.161-1.984-4.756-2.975-10.665-6.635-28.355-1.117-30.714 12.14-.278 1.565-.287 5.244-.984 6.1"/><path fill="#929294" d="M186.376 93.548c1.187.454 1.316.614 2.333 1.425 3.774 13.124-7.343 13.606-7.908 25.208-.102 2.089 1.281 5.303 1.249 7.428-.132-.033-.501-.317-.635-.41-7.155-18.306 14.006-20.196 4.961-33.651"/><path fill="#232425" d="M106.829 417.689q.187-1.308.435-2.605c.39-1.964 1.774-5.441 3.393-6.112 2.356-.976 12.945-2.222 14.957-1.555-.285 1.276-1.873 3.289-2.704 4.474-1.673 7.067-1.944 9.844-.031 16.969q-7.305.005-14.61.092c-.974-2.488-2.598-8.752-1.44-11.263"/><path fill="#535455" d="M106.829 417.689q.187-1.308.435-2.605c.39-1.964 1.774-5.441 3.393-6.112 2.356-.976 12.945-2.222 14.957-1.555-.285 1.276-1.873 3.289-2.704 4.474-2.683.176-11.541.443-13.336 1.594-1.231 1.628-1.647 4.05-2.344 4.444z"/><path fill="#535455" d="M206.931 423.379c3.172-.18 6.47-.512 9.63-.44 4.31.099 4.71 4.26 1.39 6.45-3.074.01-6.057.15-9.125.286-3.434.313-23.14 1.5-25.334.899-1.234-1.218-1.781-3.213-.999-4.811 2.336-2.106 10.655-1.85 14.247-1.984q5.099-.12 10.191-.4"/><defs><linearGradient id="d" x1="433.855" x2="414.97" y1="857.468" y2="849.651" gradientUnits="userSpaceOnUse"><stop offset="0" stop-color="#5e5d5d"/><stop offset="1" stop-color="#8a8b8c"/></linearGradient></defs><path fill="url(#d)" d="M414.453 846.757c6.353-.36 12.96-1.023 19.286-.879 8.634.197 9.435 8.519 2.786 12.899-6.157.02-12.132.302-18.276.574-4.651-4.866-2.403-3.134-4.616-8.969-1.821-1.35-4.882-.949-7.314-.933 2.88-.315 8.567-1.209 11.106.091l1.633-.753c-1.633-1.676-1.945-1.298-4.605-2.03" transform="scale(.49929 .5)"/><path fill="#cac9c9" d="M206.931 423.379c3.172-.18 6.47-.512 9.63-.44 4.31.099 4.71 4.26 1.39 6.45-1.283-1.956-1.03-2.939-.98-5.31-1.915-.004-5.676-.133-7.4.233l-.34.082c-.816-.839-.972-.65-2.3-1.016"/><path d="M209.571 424.312c1.78.123 4.1.265 3.978 2.472-1.295 1.826-3.841 2.778-5.706 1.187-.472-1.425-.219-1.955.572-3.201l.815-.376z"/><path fill="#eae8ec" d="M196.74 423.779q5.099-.12 10.191-.4c1.328.365 1.484.176 2.3 1.014l-.816.377c-1.268-.65-4.107-.203-5.545-.046-1.558.082-4.557.435-5.856-.031z"/><path fill="#535455" d="M189.296 402.2c4.978-.194 25.482-2.431 28.531.33.683.618.695 1.07.735 1.944-.573 1.256-1.007 2.14-2.164 2.976l-9.818.319c-2.16.546-22.762 1.257-24.457.567-.732-.771-1.063-1.349-1.208-2.433-.609-4.541 5.558-3.71 8.381-3.703"/><defs><linearGradient id="e" x1="407.069" x2="408.009" y1="809.916" y2="800.635" gradientUnits="userSpaceOnUse"><stop offset="0" stop-color="#c9c8c9"/><stop offset="1" stop-color="#f3f2f6"/></linearGradient></defs><path fill="url(#e)" d="M379.133 804.4c9.969-.388 51.037-4.863 57.144.659 1.367 1.236 1.391 2.14 1.472 3.889-1.148 2.512-2.018 4.279-4.334 5.953l-19.664.636-.26-.948 1.638-.689c-2.371-2.076-3.012-2.394-3.915-5.385l-.705-1.377.419-.773c-2.479-2.295-26.606 1.517-31.894-.514z" transform="scale(.49929 .5)"/><defs><linearGradient id="f" x1="430.036" x2="417.261" y1="807.367" y2="818.261" gradientUnits="userSpaceOnUse"><stop offset="0" stop-color="#757373"/><stop offset="1" stop-color="#88898b"/></linearGradient></defs><path fill="url(#f)" d="M411.214 808.515c3.403-4.083 4.985-4.236 10.138-3.477 3.238.066 6.461.161 9.699.08-.658 4.711-.582 5.863 2.364 9.783l-19.664.636-.26-.948 1.638-.689c-2.371-2.076-3.012-2.394-3.915-5.385" transform="scale(.49929 .5)"/><path d="M205.314 404.258c1.699-2.042 2.489-2.118 5.062-1.739.83.971 1.001 1.046 1.11 2.251-.788 2.048-2.165 2.291-4.217 2.18-1.184-1.038-1.504-1.197-1.955-2.692"/><path fill="#929294" d="M206.45 407.295c-1.813-1.522-1.796-1.494-1.488-3.726l.352.688c.45 1.496.77 1.655 1.955 2.693z"/><path fill="#535455" d="M186.504 145.232a6.94 6.94 0 0 1-1.137-9.036 6.92 6.92 0 0 1 8.78-2.37 6.94 6.94 0 0 1 3.892 6.383 6.93 6.93 0 0 1-4.162 6.21 6.92 6.92 0 0 1-7.373-1.187"/><path fill="#6e6d6e" d="M186.504 145.232a6.94 6.94 0 0 1-1.137-9.036 6.92 6.92 0 0 1 8.78-2.37c-3.36 1.426-5.741-1.516-8.851 4.09-.4 4.821 1.49 5.846 1.208 7.316"/><path fill="#dc1d20" d="M198.48 357.236c1.332.23 1.459.197 2.495.992 1.304 2.206-.039 17.666-.16 20.805-.012.303-.877 1.183-1.154 1.45l-1.311-.782c-1.242-1.942-1.525-16.194-1.566-19.586-.017-1.493.595-1.976 1.697-2.88"/><path fill="#dc1d20" d="M221.064 368.168c1.483.176 2.076.371 2.791 1.712.319 3.15-7.205 11.206-9.586 14.233-.746.456-.896.363-1.77.34l-.412-.983c.295-2.5 6.957-13.683 8.977-15.303"/><path fill="#dc1d20" d="M176.368 367.798c.143.013 1.068.096 1.182.183 2.192 1.658 7.13 10.442 8.267 12.658-.038 1.173-.18.935-1.187 2.085-2.313-1.563-9.02-10.091-9.527-12.723.29-1.46.147-.966 1.265-2.203"/><path fill="#3b3d3d" d="M196.187 411.27c1.284 1.229 1.207 7.071 1.3 9.185l-.474-.425c-.57-2.363-.843-6.311-.826-8.76"/></svg>