<svg xmlns="http://www.w3.org/2000/svg" width="1800" height="833" viewBox="0 0 1800 833"><path d="M702.225 140.323c20.482-11.7 44.323-27.266 65.489-36.714 34.132-15.236 75.565-32.942 111.54-43.601a594.14 594.14 0 0 1 321.698-2.797c190.277 51.976 303.85 196.245 390.559 364.501 13.207 25.617 69.349 31.176 92.692 43.764-10.726 26.562-30.908 38.806-53.87 53.986-4.483 2.967-19.902 10.605-15.66 17.277 12.578 19.755 35.02 32.185 51.2 48.652 1.56 1.593 1.7 2.809 1.52 4.89-7.284 9.392-55.14 28.276-68.458 34.435 9.975 18.66 45.595 90.767 41.723 108.485-1.65 2.268-2.441 2.928-5.793 3.195-20.131 1.602-40.253.46-60.684 1.353l-287.38 12.545-101.908 4.494a1740 1740 0 0 1-40.853 1.415c-2.911.065-7.544 2.075-9.345 4.362-2.471 2.951-1.36 6.635-1.12 10.676-51.32 2.288-99.136 5.439-150.818 4.5-14.637.116-28.04.337-42.67 1.136-9.335 1.753-33.117.888-43.804.691-9.074.174-20.19.101-29.078.933a817 817 0 0 1-33.138-.269c-.015-6.127 1.616-14.182-2.022-18.887-9.542-6.224-162.748-5.111-186.392-10.725-6.926-1.645-42.384-3.211-51.65-3.62l-237.83-8.67-17.288.07c-10.046.975-42.833 5.403-49.402.415-.714-1.301-1.049-2.69-.766-4.15 2.239-11.59 10.381-25.799 15.698-36.477 27.062-54.345 58.842-109.461 101.993-152.755 14.76-14.809 38.591-26.338 55.181-39.627-3.177-10.359-17.706-35.989-23.497-47.387-5.693-3.491-9.963-5.467-16.196-7.695-11.68.14-18.632-4.559-28.42-10.154-20.485-9.453-46.526-24.859-65.496-37.497-13.95-9.293-17.703-26.021-35.368-32.515-2.816 2.209-10.088 8.606-13.284 7.919-8.663-2.492-15.552-14.072-20.299-20.775-28.61-40.403-49.422-85.369-47.398-136.059.43-25.396-3.117-42.178 19.122-59.245 26.098-20.029 53.581-31.516 83.662-43.036 66.119-25.322 132.58-34.408 203.105-31.594 56.315 2.246 113.118 13.89 162.368 42.798 7.425 4.358 14.406 8.396 22.337 11.757"/><path fill="#313437" d="M518.025 549.658c102.767 53.85 213.84-24.18 275.465-104.908 10.079-13.203 18.508-29.982 26.235-44.606 14.785 14.742 28.23 26.631 45.676 38.386 12.642 8.518 26.917 16.568 38.832 25.844-34.295 5.287-59.477 18.697-83.985 42.969 154.402-16.861 189.777 18.752 276.326 139.207-5.874-4.232-16.13-13.061-22.093-17.938-27.215-22.264-43.874-34.654-77.233-46.601 51.329 55.478 76.843 87.099 98.595 159.134-20.751 2.301-54.66 5.19-75.282 5.797 1.09-16.835 3.632-35.458 3.612-52.073-21.852 18.271-33.598 41.357-43.632 67.778-1.008 2.653-2.963 9.532-1.479 11.937.306.498 2.88.957 3.695 1.157-14.637.116-28.04.337-42.67 1.136 8.537-37.308 18.256-54.507 38.71-86.05-42.626-44.611-131.77-111.585-185.38-140.023 2.08 45.36 22.994 87.29 37.788 129.292-5.112-5.632-11.197-15.16-15.957-21.481-21.937-29.129-35.145-53.046-47.025-87.331-63.296 46.483-160.217 53.196-223.464 3.331-9.207-7.259-18.265-16.716-26.734-24.957"/><path fill="#313437" d="M867.205 778.501c11.723-28.106 31.362-56.604 57.49-73.415 3.788-2.437 15.26-8.387 19.693-7.288.634 1.928-1.806 5.067-3.414 6.191-8.09 5.652-51.328 66.398-44.691 73.579-9.074.174-20.19.101-29.078.933"/><path fill="#313437" d="M338.885 736.4c5.485-10.899 20.933-44.454 33.17-47.761 7.245 4.465-14.462 39.588-15.882 47.691z"/><path fill="#313437" d="M393.475 438.57c12.803-.47 17.931 2.87 28.421 10.154-11.68.14-18.632-4.559-28.42-10.154"/><path fill="#313437" d="M464.504 106.84c15.504-1.687 46.243-.592 62.142-.022 52.56 1.884 143.474 27.982 178.749 68.409 7.23 48.57 15.082 96.286 36.2 141.157 6.446 13.697 15.288 25.54 21.71 38.853-11.101 14.847-20.5 25.762-34.212 38.194-28.97-27.192-30.029-62.556-40.458-95.359-10.564 27.507-27.51 66.306-43.774 90.621 11.873-49.174 27.584-118.666 25.446-169.107-2.297 12.313-7.707 26.877-12.068 38.595-25.761 69.218-73.016 143.025-152.666 153.645-20.133 2.685-39.324.318-59.291-2.526-30.601-5.227-90.624-30.65-112.833-51.676 8.495-.071 23.852-.026 31.725 1.842 28.541 6.771 53.771 17.846 84.037 15.161 36.233-3.214 58.938-20.518 75.766-52.312 5.587-9.882 9.257-22 16.858-30.558 11.207-12.617 19.56-10.338 30.473-.55.173-8.421.815-18.45-3.495-25.894-11.003-19.008-35.35-9.162-49.53-1.281 7.712.505 12.102 1.413 19.55 3.3a42 42 0 0 1-1.661 1.583c-12.508 11.121-38.125 30.569-52.266 38.334-39.177 21.436-87.726 26.585-131.77 25.881-35.36-.565-42.261-10.472-71.375 15.926-25.18-36.135-42.57-69.721-46.78-115.145-1.22-13.161-1.798-41.411 7.565-52.302 5.09-5.921 22.613-17.032 29.73-21.161 57.662-33.453 126.08-49.831 192.228-53.608"/><path d="M549.048 158.555c9.038-.653 23.945.514 33.25 1.019-12.781 5.655-23.576 11.496-35.53 18.576-7.055 17.917-7.064 33.921-21.492 50.784-14.557 17.015-35.86 26.466-57.978 27.872-29.32 1.863-44.15-1.325-66.086-19.744l-8.623-8.716c-8.97.547-39.594 4.286-42.403-6.844 2.168-2.389 36.125-10.912 42.349-13.541 56.745-23.97 93.7-45.068 156.513-49.406"/><path fill="#ebeaeb" d="M519.45 186.46c7.927 7.866-7.206 40.44-15.742 46.389-4.07 2.837-20.426 18.347-25.648 12.518 9.413-12.604 9.845-17.604 9.646-32.57-3.552-4.847-4.498-6.596-7.05-12.045 8.739-5.98 28.053-11.276 38.794-14.292"/><path d="M271.57 206.883c8.357 3.684 17.65 13.333 11.462 22.85-2.526 2.415-3.785 2.882-6.88 1.687-5.11-5.447-4.615-17.444-4.582-24.537"/><path fill="#313437" d="M759.958 265.189c7.764 1.637 29.152 13.177 36.786 17.339A858 858 0 0 1 905.6 353.813c33.77 26.442 58.427 49.584 94.93 74.812a640 640 0 0 0 163.281 82.783c132.695 43.84 268.15 31.809 393.3-28.846 17.34-8.405 34-17.709 51.19-26.364l27.445 11.173-10.306 7.173c-190.837 116.512-404.647 122.855-596.754 5.912-19.891-12.108-42.642-25.339-60.666-39.901-35.786-28.912-68.634-61.968-102.99-92.602a1358 1358 0 0 0-81.344-66.54c-7.924-5.884-15.945-10.519-23.728-16.224"/><path fill="#313437" d="M1284.379 478.176c24.243-23.982 14.768-18.861 6.634-48.496-2.612-9.504 2.12-31.83-4.803-40.941-12.547-16.498-29.927-18.021-26.285-44.272 1.25-9.035 13.288-7.256 20.251-8.896 12.257-2.884 19.672-5.729 32.379-2.671 23.383 6.908 81.295 80.104 96.274 100.916 29.036 1.155 59.993 2.747 89.01 2.922 6.963 3.492 5.292 4.737 6.373 11.855-14.688 3.914-37.331 1.888-52.88 2.001-11.366-.722-22.652-.773-34.039-.921 8.305 13.547 16.88 31.681 24.094 46.125-42.194 11.977-114.254 11.246-158.159 10.054-.09-8.519.72-19.033 1.15-27.676"/><path fill="#8c8b8b" d="M1312.555 332.9c23.383 6.908 81.295 80.104 96.274 100.916 29.036 1.155 59.993 2.747 89.01 2.922 6.963 3.492 5.292 4.737 6.373 11.855-14.688 3.914-37.331 1.888-52.88 2.001-11.366-.722-22.652-.773-34.039-.921l-13.267-.55c-7.054-6.81-13.758-16.443-19.891-24.344-8.775-11.31-17.78-22.743-27.666-33.117a334 334 0 0 0-19.75-18.746c-7.215-6.232-36.261-25.765-31.929-36.692 1.991-2.351 4.713-2.606 7.765-3.324"/><path fill="#8c8b8b" d="M1083.386 197.742c33.089.823 66.147 2.382 99.156 4.674 13.838.994 38.291 2.445 51.148 6.186 7.545 24.777 12.878 90.289 15.189 119.135-17.71.212-42.624-1.741-60.554-2.855-27.695-1.719-58.653-3.469-85.978-7.181-8.555-21.081-17.2-95.253-18.96-119.959"/><path d="M1105.289 213.502c17.96-.279 40.312 1.981 58.532 3.079 16.32.984 38.312 1.532 54.05 3.989a1011 1011 0 0 1 9.436 89.746c-11.917.077-27.235-1.266-39.412-1.997l-67.838-4.064c-5.713-29.871-10.116-60.656-14.768-90.753"/><path fill="#313437" d="M741.072 148.568c-1.921-5.205-2.639-10.979 3.886-13.567 7.966-3.159 14.566-6.104 23.491-8.84 28.808-8.831 100.977-42.727 128.46-31.031 13.005 5.534 44.623 41.287 57.728 50.691 2.749 2.377 8.572 5.027 12.164 5.642 15.32 2.621 29.49 3.825 44.925 6.901a374 374 0 0 1 32.228 7.736c6.134 1.815 14.648 4.948 20.452 6.399 14.138 6.647 6.754 14.834-2.472 20.638-18.23-2.087-27.745-3.465-41.763 10.488-14.148 2.12-47.492 4.778-59.214-3.261-10.232-7.783-34.283-25.244-47.912-22.008-20.467 4.86-35.508-17.616-48.191-17.797-37.413-.535-79.396 8.265-116.384 15.615-1.74-9.155-4.504-18.769-7.398-27.606"/><path fill="#8c8b8b" d="M741.072 148.568c-1.921-5.205-2.639-10.979 3.886-13.567 7.966-3.159 14.566-6.104 23.491-8.84 28.808-8.831 100.977-42.727 128.46-31.031 13.005 5.534 44.623 41.287 57.728 50.691 2.749 2.377 8.572 5.027 12.164 5.642 15.32 2.621 29.49 3.825 44.925 6.901a374 374 0 0 1 32.228 7.736c6.134 1.815 14.648 4.948 20.452 6.399 1.73 3.539 3.632 5.79.79 8.913-1.9.364-28.226-5.376-32.398-6.901-24.714-9.039-60.93-5.554-83.535-15.77-23.168-10.471-54.1-51.634-81.849-48.378-42.96 5.042-85.849 24.62-126.342 38.205"/><path fill="#8c8b8b" d="M973.617 124.734c-13.102-10.938-25.9-21.522-38.313-33.184-16.957-15.932 9.109-17.551 20.034-19.055 42.297-5.823 84.974-8.972 127.608-7.115a486.7 486.7 0 0 1 151.245 30.207c7.044 2.544 25.154 7.426 26.745 15.05-1.361 7.927-15.099 18.918-21.402 24.61-2.332 4.11-9.966 9.687-13.808 12.624-6.294.654-15.299 1.095-21.592.809-6.584-.299-10.926-13.916-14.078-18.205-2.802 1.028-5.813 2.258-8.745 2.725l-11.937-.681c-5.212-2.922-9.955-8.108-14.247-12.387-.36-.647-1.321-3.281-1.651-4.127 4.692-7.178 6.093-7.69 13.927-11.042-.85-6.97-.8-9.523.05-16.345-3.151-5.248-27.245-6.99-33.628-6.888-3.382 8.109-2.032 16.07-.57 24.553-14.299-5.009-38.292-11.152-44.145 8.86 2.23.773-13.158.38-13.338.379-2.641 24.209-35.49 22.721-44.535 6.194a816 816 0 0 1-57.62 3.018"/><path fill="#313437" d="M949.307 84.828c7.945-1.997 22.537-3.183 30.929-4.036 32.941-3.347 68.04-4.736 101.13-3.142 17.98.867 33.328 5.048 52.459 4.08-3.382 8.109-2.032 16.07-.57 24.553-14.299-5.009-38.292-11.152-44.145 8.86 2.23.773-13.158.38-13.338.379-2.641 24.209-35.49 22.721-44.535 6.194 2.912-8.162 5.533-7.948 12.937-13.124-14.648 3.894-45.62 3.804-62.53 4.914-10.012-7.83-22.528-19.891-32.337-28.678"/><path fill="#ebeaeb" d="M1044.174 108.592c8.475-2.339 17.1-2.472 24.944 2.021 2.422 1.386 4.653 3.878 6.654 4.909-2.641 24.209-35.49 22.721-44.535 6.194 2.912-8.162 5.533-7.948 12.937-13.124"/><path d="M1051.298 114.22c4.803.46 9.166.637 9.566 6.367-1.261 3.002-2.772 3.618-5.563 5.34-4.463-1.039-9.746-2.035-9.716-7.57 1.441-2.64 2.912-2.965 5.713-4.137"/><path fill="#313437" d="M1167.453 88.618c6.844 4.03 30.578 8.71 39.432 11.439 13.238 4.077 25.925 8.143 38.982 13.094-2.771 6.494-7.084 15.154-6.333 22.096-2.332 4.11-9.966 9.687-13.808 12.624-6.294.654-15.299 1.095-21.592.809-6.584-.299-10.926-13.916-14.078-18.205-2.802 1.028-5.813 2.258-8.745 2.725l-11.937-.681c-5.212-2.922-9.955-8.108-14.247-12.387-.36-.647-1.321-3.281-1.651-4.127 4.692-7.178 6.093-7.69 13.927-11.042-.85-6.97-.8-9.523.05-16.345"/><defs><linearGradient id="a" x1="1155.125" x2="1191.148" y1="118.723" y2="118.533" gradientUnits="userSpaceOnUse"><stop offset="0" stop-color="#b8b7b7"/><stop offset="1" stop-color="#dad9d9"/></linearGradient></defs><path fill="url(#a)" d="M1166.75 104.963c16.77-.48 34.7 5.952 22.64 25.512-2.8 1.028-5.81 2.258-8.74 2.725l-11.93-.681c-5.21-2.922-9.95-8.108-14.24-12.387-.36-.647-1.32-3.281-1.65-4.127 4.69-7.178 6.09-7.69 13.92-11.042" transform="scale(1.00056 1)"/><path d="M1168.264 114.146c5.233-.526 9.525-.959 12.767 3.603.44 2.748-.36 3.717-1.67 6.107-4.443-.097-7.665-.265-10.817-3.539-1.36-3.472-1.06-2.231-.28-6.171"/><path fill="#313437" d="M1056.631 311.728c5.353 1.453 8.055 2.199 13.608 2.805 9.475 6.911 21.152 15.899 30.857 22.084 2.101 9.41 3.122 19.373 4.233 28.96 3.692 32.002 7.244 64.58 7.334 96.807-34.79-15.124-111.593-69.346-138.175-96.675l-14.395-12.539c9.257-7.836 45.4-39.536 54.795-41.626 12.817.425 29.086.798 41.743.184"/><path fill="#8c8b8b" d="M960.093 353.17c9.257-7.836 45.4-39.536 54.795-41.626 3.112 4.685 5.213 8.67 6.524 14.261-10.506 13.196-32.676 30.269-46.924 39.904z"/><path fill="#313437" d="M1239.784 183.581c.45-7.997 3.542-12.135 9.445-17.418 4.122-3.695 8.695-6.885 12.737-10.682 8.635-8.121 24.944-29.367 37.261-28.776 16.63.798 82.756 52.525 97.485 64.956 11.176 9.437 22.402 19.457 32.028 30.501 2.621 3.018 5.103 6.308 7.074 9.795-31.518.214-65.117-5.317-97.185-5.491-5.073 8.443-12.247 21.084-18.6 28.243-21.072-1.229-42.554-2.287-63.476-4.96-.68-3.556-1.77-7.163-.51-10.49 4.493-3.69 43.905 1.52 52.05 2.55.95-2.493 2.44-6.772 3.501-9.047-4.602-1.934-10.856-5.997-14.548-9.221-19.14-16.731-21.882-16.755-45.766-18.034-7.754-7.632-9.965-11.134-11.496-21.926"/><path fill="#8c8b8b" d="M1239.784 183.581c.45-7.997 3.542-12.135 9.445-17.418 4.122-3.695 8.695-6.885 12.737-10.682 8.635-8.121 24.944-29.367 37.261-28.776 16.63.798 82.756 52.525 97.485 64.956 11.176 9.437 22.402 19.457 32.028 30.501 2.621 3.018 5.103 6.308 7.074 9.795-31.518.214-65.117-5.317-97.185-5.491-5.073 8.443-12.247 21.084-18.6 28.243-21.072-1.229-42.554-2.287-63.476-4.96-.68-3.556-1.77-7.163-.51-10.49 4.493-3.69 43.905 1.52 52.05 2.55.95-2.493 2.44-6.772 3.501-9.047 15.939-18.631 6.714-28.268 41.203-22.193 25.094 4.422 48.337 12.72 73.661 15.659-15.748-16.219-37.63-34.545-56.811-46.847-4.903-3.146-13.698-3.37-18.11-6.52-9.606-6.857-19.031-14.255-28.637-21.123-6.113-4.381-13.687-8.374-20.371-11.977-19.38 13.79-40.723 35.942-62.745 43.82"/><path fill="#313437" d="M1521.341 575.497c1.231.204 3.142.822 4.103 1.673 40.192 35.676 65.346 80.08 75.822 132.678-9.285.866-14.028.854-23.263-.075-8.405-15.536-16.52-42.727-34.199-50.189-1.821-.772-4.853-1.408-6.824-.469-.81 4.823 4.613 21.065 5.543 27.302.91 6.073 1.241 9.954 1.561 16.319-.99 4.938-5.653 13.25-11.796 10.056-11.537-6.038-12.768-20.95-17.37-31.557-17.67-40.71-68.999-48.179-105.079-63.154 36.05-12.651 75.362-28.756 111.502-42.584"/><path fill="#313437" d="M1379.042 253.909c26.585 3.926 52.61 3.471 79.044 7.353 24.954 26.972 35.89 54.505 55.15 82.318 5.524 5.921 12.728 19.733 16.83 27.193-7.764.099-15.939.41-23.683-.139-17.04-1.209-13.718-16.613-22.452-27.081-8.375-10.046-18.13-11.297-30.157-12.557-5.493-5.36-14.078-15.847-19.361-21.963-25.554-3.802-42.754 4.051-50.568-26.381 4.612-3.19 6.213-4.599 8.404-9.724-3.152-10.871-4.192-12.483-13.207-19.019"/><defs><linearGradient id="b" x1="1459.694" x2="1435.028" y1="354.706" y2="245.168" gradientUnits="userSpaceOnUse"><stop offset="0" stop-color="#686a72"/><stop offset="1" stop-color="#908e8d"/></linearGradient></defs><path fill="url(#b)" d="M1378.27 253.909c26.57 3.926 52.58 3.471 79 7.353 24.94 26.972 35.87 54.505 55.12 82.318l-.82 1.725c-2.35-.074-4.62-2.422-5.92-4.305-15.91-23.048-31.15-46.204-50.96-66.303-9.32-.615-58.29-4.741-63.22-1.769-3.15-10.871-4.19-12.483-13.2-19.019" transform="scale(1.00056 1)"/><path fill="#8c8b8b" d="M1327.673 310.464c-15.369-.989-30.787-2.065-46.146-3.314-6.183-.504-14.788-1.442-18.38-7.052-.3-3.367-.55-2.005 1.13-5.156 10.326-3.17 53.41 2.014 66.518 3.108l10.146 8.462c.54-3.53-.66-4.935-2.392-7.96 4.993-1.515 26.915-.146 31.728 3.174 5.913 4.072 9.495 9.216 17.13 11.949 4.902 1.753 10.716 2.912 15.958 3.429 26.415 2.597 27.986 6.502 41.644 27.099 9.625-9.797 24.103-11.707 32.668-1.372 18.61 22.47.33 44.297-26.245 27.32-.84-1.176-5.763-5.923-7.064-7.231-19.23-.123-39.512-1.544-59.023-1.938l-8.845-1.041c-13.117-12.55-35.87-40.355-48.827-49.477"/><path fill="#313437" d="M1340.94 306.512c.54-3.53-.66-4.935-2.39-7.96 4.992-1.515 26.914-.146 31.727 3.174 5.913 4.072 9.495 9.216 17.13 11.949 4.902 1.753 10.716 2.912 15.958 3.429 26.415 2.597 27.986 6.502 41.644 27.099l-1.831 1.757c-8.645 2.63-50.489-.817-62.635-1.643-12.787-9.925-28.366-26.268-39.602-37.805"/><path d="M1459.447 345.986c12.977.584 21.952 9.035 10.075 20.13-13.207 1.698-21.582-10.078-10.075-20.13"/><path fill="#313437" d="M592.202 652.46c6.604.495 24.383 6.583 31.399 8.744a2280 2280 0 0 0 48.658 14.363A1258 1258 0 0 0 791.62 701.47c-11.136 1.273-33.238.689-45.176.69q-99.022 1.078-198.048.829c13.863-17.475 29.174-33.713 43.806-50.529"/><path fill="#8c8b8b" d="M751.446 186.586c26.947-6.481 54.089-10.53 81.604-13.584 21.9-2.431 35.337.866 48.356 19.467 4.328-1.173 7.442-2.422 11.54-4.406 1.76-.852 5.813-2.954 7.765-3.424 9.194-2.213 20.693-2.133 29.132 2.519 13.611 8.27 6.104 24.137-7.727 26.326-12.079 1.912-23.496-1.883-33.655-8.025-36.717 1.614-95.536 6.286-131.942 12.953-2.973.431-1.997.719-3.987-.657-2.286-5.283-1.232-24.664-1.086-31.169"/><path fill="#313437" d="M751.446 186.586c26.947-6.481 54.089-10.53 81.604-13.584 21.9-2.431 35.337.866 48.356 19.467-35.658 2.811-93.661 7.908-127.803 15.591.033 3.032-.247 6.781 1.14 9.365l1.776.987c-2.973.431-1.997.719-3.987-.657-2.286-5.283-1.232-24.664-1.086-31.169"/><path d="M905.498 192.463q2.303-.007 4.601.048c5.246.137 14.163 1.207 13.56 7.969-1.548 2.663-3.467 3.309-6.23 4.709-5.88.035-16.849.11-17.782-7.265 1.047-2.988 3.102-3.806 5.85-5.461"/><path fill="#313437" d="M801.126 253.467c54.032-1.35 108.173-5.99 162.423-4.907 17.421.348 39.602-.951 56.442 1.104l1.941 12.186c-14.358-.112-29.253-.659-43.658-.971-6.794.269-12.62-.027-19.424-.357-11.72 11.691-21.898 17.816-35.27 27.505-7.341 5.321-15.589 12.118-22.748 17.858-21.397-11.837-58.956-37.147-81.05-43.996-6.594-2.767-12.249-5.257-18.656-8.422"/><path fill="#8c8b8b" d="M801.126 253.467c54.032-1.35 108.173-5.99 162.423-4.907 17.421.348 39.602-.951 56.442 1.104l1.941 12.186c-14.358-.112-29.253-.659-43.658-.971-9.067-1.488-31.556-.944-41.676-.925q-27.813-.091-55.619.513c-20.005.567-41.292 1.736-61.196 1.422-6.595-2.767-12.25-5.257-18.657-8.422"/><path fill="#8c8b8b" d="m1193.448 340.917 13.978.44c.24 8.927 1.66 21.569 3.122 30.27 14.378 2.892 18.22 6.939 22.892 20.189 9.766 6.117 20.052 12.826 30.207 18.096.15 6.773-.08 14.197-.16 21.022 2.602.545 5.173 1.181 7.734 1.905 22.953 6.661 32.489 27.62 6.834 40.516-8.785 2.184-19.02 1.827-26.454-3.924a19.86 19.86 0 0 1-7.695-13.49c-1.08-8.854 2.972-14.492 7.915-20.965q-.735-6.601-1.381-13.213c-6.964-6.664-15.93-13.427-23.563-19.487-21.963 6.072-44.955-1.799-31.268-27.64q-.825-16.876-2.161-33.719"/><path d="M1263.357 443.651c14.528-.38 26.775 10.07 9.545 20.989-14.408.42-25.704-10.154-9.545-20.989"/><path d="M1208.116 381.176c8.735 1.448 15.689 6.016 6.724 14.067-8.845 1.679-15.569-6.096-6.724-14.067"/><path fill="#313437" d="M1385.345 360.982c19.511.394 39.793 1.815 59.023 1.938 1.301 1.308 6.224 6.055 7.064 7.231 2.772 12.61 27.716 16.345 38.662 25.315 9.535.251 20.211.765 29.657.725 2.741 5.446 5.573 10.977 6.703 17.037-15.708-1.293-32.238-1.189-48.067-1.621-17.62-.579-35.23-1.345-52.82-2.298-5.622-5.483-8.454-9.146-13.217-15.438-5.593-3.993-22.432-26.801-27.005-32.889"/><path fill="#8c8b8b" d="M1412.35 393.871c24.994-1.544 52.52 1.654 77.744 1.595 9.535.251 20.211.765 29.657.725 2.741 5.446 5.573 10.977 6.703 17.037-15.708-1.293-32.238-1.189-48.067-1.621-17.62-.579-35.23-1.345-52.82-2.298-5.622-5.483-8.454-9.146-13.217-15.438"/><path fill="#313437" d="m1497.838 436.738 40.083.481c8.404.084 25.154-1.412 31.157 4.488 2.422 8.008-10.876 13.382-16.85 16.561-25.423 14.613-50.137 23.348-78.113 31.262-7.464-10.611-16.239-27.247-22.783-38.936 15.549-.113 38.192 1.913 52.88-2.001-1.08-7.118.59-8.363-6.374-11.855"/><defs><linearGradient id="c" x1="1550.272" x2="1520.683" y1="459.35" y2="423.742" gradientUnits="userSpaceOnUse"><stop offset="0" stop-color="#45454d"/><stop offset="1" stop-color="#7c7a7b"/></linearGradient></defs><path fill="url(#c)" d="m1497 436.738 40.06.481c8.4.084 25.14-1.412 31.14 4.488 2.42 8.008-10.87 13.382-16.84 16.561-3.64-4.784-5.01-9.517-7.06-15.128-8.75-.639-31.83-3.149-39.11-1.114-1.82 1.937-1.41 3.42-1.82 6.567-1.08-7.118.59-8.363-6.37-11.855" transform="scale(1.00056 1)"/><path fill="#313437" d="M1321.04 662.629c7.353 3.925 35.48 34.651 42.483 42.107-17.45.059-35.61-1.323-53.13-2.248-16.96-.896-34.92-1.29-51.709-2.999-16.549-.16-34.669-.368-51.058-2.334 27.976-8.855 56.772-14.432 84.337-24.772 9.405-3.531 19.521-6.606 29.076-9.754"/><path fill="#8c8b8b" d="M926.726 222.677c27.565-1.236 59.402-.493 87.292-.382l1.44 12.246a2257 2257 0 0 0-177.641 3.252c-17.795 1.738-69.63 8.595-83.815.519l.147-1.145c12.73-8.341 153.142-13.722 172.577-14.49"/><path fill="#8c8b8b" d="M1157.188 338.257c4.512.024 9.475.476 14.018.788 2.941 20.189 4.062 40.387 6.853 60.599 10.696 5.455 24.064 15.204 31.538 24.608 2.241 21.025 1.861 50.832.47 71.778-5.303-.625-13.747-2.556-19.21-3.632.93-20.833 1.49-41.681 1.66-62.534-7.244-7.802-20.591-16.897-29.466-23.322a77 77 0 0 1-.93-8.431c-1.151-19.984-3.753-39.877-4.933-59.854"/><path fill="#8c8b8b" d="M1121.538 335.692c5.313.576 10.606 1.21 15.899 1.9 4.742 35.726 12.447 105.014 9.955 139.756-7.024-1.407-17.07-2.588-16.82-11.561 1.211-44.026-4.052-86.392-9.034-130.095"/><path fill="#ebeaeb" d="m518.101 312.692 1.13 1.442c-2.358 15.62-20.58 32.659-33.491 40.569-28.024 17.169-58.66 13.522-89.123 5.908-2.275-.51-7.004-2.562-9.362-3.507 56.385-5.502 82.94-12.644 130.846-44.412"/><defs><linearGradient id="d" x1="1143.629" x2="1106.233" y1="185.336" y2="100.925" gradientUnits="userSpaceOnUse"><stop offset="0" stop-color="#838383"/><stop offset="1" stop-color="#b7b5b6"/></linearGradient></defs><path fill="url(#d)" d="M1088.5 115.143c5.85-20.012 29.83-13.869 44.12-8.86 7.28 11.618 5.03 15.461-5.51 23.797q9.795 9.579 19.11 19.629c.68 11.447 1.94 25.564 2.05 36.773l-16.69-1.272c-.95-12.148-2.22-24.858-2.98-36.93l-11.93-14.403c-13.73-2.96-23.26-3.741-28.17-18.734" transform="scale(1.00056 1)"/><path d="M1106.45 109.809c6.413-.132 17.469-.339 18.52 7.831-.71 2.844-2.422 3.844-4.713 5.717-6.844.909-15.819.576-17.9-7.325.49-3.298 1.56-3.943 4.092-6.223"/><defs><linearGradient id="e" x1="1312.506" x2="1339.227" y1="297.594" y2="238.083" gradientUnits="userSpaceOnUse"><stop offset="0" stop-color="#848384"/><stop offset="1" stop-color="#a9a8a8"/></linearGradient></defs><path fill="url(#e)" d="M1343.91 271.281c15.7-10.864 10.53-22.086 34.36-17.372 9.01 6.536 10.05 8.148 13.2 19.019-2.19 5.125-3.79 6.534-8.4 9.724-11.07 1.738-15.14.154-23.76-6.271a83 83 0 0 1-3.61 2.499c-3.68 2.433-7.36 4.628-11.87 4.986-14.83.51-26.33-1.252-41.48-2.903-10.47-1.142-36.16 1.441-43.51-7.254-1.22-1.448-.41-3.581.11-5.206 3.65-3.619 19.73-1.051 24.94-.522 20.07 2.038 39.8 5.031 60.02 3.3" transform="scale(1.00056 1)"/><path d="M1368.296 262.401c5.103.023 8.545.165 11.386 4.69.59 3.217-.14 4.238-1.55 7.198-.861-.11-1.722-.238-2.572-.386-3.542-.621-5.733-1.249-7.804-4.161-1.151-3.086-.52-4.206.54-7.341"/><path fill="#d64d45" d="M690.494 451.546c.846.017 2.91.115 3.575.392 6.215 2.578 18.112 24.683 15.633 30.316-3.973 9.029-21.464 17.194-30.019 21.799-.824.065-3.814.418-4.263.171-7.995-4.382-16.461-27.782-13.836-35.192 4.253-5.714 22.09-14.345 28.91-17.486"/><path fill="#d64d45" d="M731.562 418.965c3.81.268 5.836.409 8.581 3.302 25.454 26.815 9.818 33.772-13.572 50.649-11.503 3.881-20.067-21.852-22.376-29.886 6.58-9.166 18.207-17.656 27.367-24.065"/><path fill="#8c8b8b" d="M979.572 278.486c9.368-1.017 35.976.363 46.392.823.76 3.998 1.861 8.365 2.782 12.364-44.648.981-33.544-8.158-70.464 22.767-16.52 11.925-16.99 25.125-35.692 8.17 16.436-14.349 38.48-33.027 56.982-44.124"/><path fill="#d64d45" d="M645.098 475.368c11.502 3.093 14.941 26.163 17.27 36.484-9.45 5.588-19.968 8.982-30.526 11.708q-.485.028-.968.05c-2.984.133-4.692.487-6.84-1.655-7.12-7.097-8.267-24.023-8.486-33.459 7.647-5.33 20.568-9.738 29.55-13.128"/><path fill="#d64d45" d="M768.148 381.166c10.162.493 19.014 15.493 23.13 23.636-7.081 11.817-15.362 21.373-24.799 31.237-9.595-1.578-24.041-19.229-21.316-29.118 2.382-8.641 15.39-20.886 22.985-25.755"/><path fill="#d64d45" d="M591.351 490.679c4.117-.516 9.174-.247 13.391-.159a105.1 105.1 0 0 1 6.025 36.607c-6.719 2.629-13.642 2.986-20.758 3.566-26.633 1.06-21.742-17.676-20.417-37.516 6.989-1.435 14.614-1.897 21.759-2.498"/><path fill="#313437" d="M1134.905 588.815c11.797-1.055 49.488 9.24 63.226 10.351 7.944.643 56.391 8.015 59.063 10.168-1.501 1.345-3.692 1.29-5.834 1.545-68.088 11.17-58.312 13.931-116.455-22.064"/><path fill="#8c8b8b" d="M1165.662 145.601c-15.868-2.442-32.738-24.325-21.021-33.768 2.541-.938 2.861-.981 5.483-.322l.57 3.173 2.782 1.321c.33.846 1.29 3.48 1.65 4.127 4.293 4.279 9.036 9.465 14.248 12.387l11.937.681c-1.66 2.751 4.573 49.061 5.283 55.999-5.643-.378-11.636-.683-17.23-1.327-1.76-14.19-1.81-28.855-3.702-42.271"/><path fill="#313437" d="M1165.662 145.601c-15.868-2.442-32.738-24.325-21.021-33.768 2.541-.938 2.861-.981 5.483-.322l.57 3.173 2.782 1.321c.33.846 1.29 3.48 1.65 4.127 2.292 5.583 5.434 8.482 9.786 12.636z"/><path fill="#d64d45" d="M789.216 336.98c9.28 4.116 16.895 10.671 23.958 17.803-2.262 15.446-4.945 24.129-14.505 36.591-4.902 1.828-8.698-1.987-12.396-4.637-19.896-14.257-5.75-33.943 2.943-49.757"/><path fill="#d64d45" d="M529.617 488.494c10.174-.154 20.079 2.361 29.996 4.508l.59 6.176c.569 6.056 3.11 25.63-.579 30.082-29.89-3.088-38.952-8.83-30.007-40.766"/><path fill="#d64d45" d="M494.603 472.053c7.864 1.757 17.25 6.775 24.83 10.253 1.067 10.921.7 21.935-1.094 32.76-12.135-4.192-18.694-9.337-26.076-19.58-.415-9.991-.25-13.818 2.34-23.433"/><path fill="#313437" d="m1457.366 691.315 11.226 1.686c-1.26 9.66-1.991 28.694-5.853 38.275-.63 1.552-2.892 1.485-4.743 1.765l-12.897-.056c1.69-16.412 3.442-27.749 12.267-41.67"/><path fill="#8c8b8b" d="M1092.321 149.649c21.562 4.086 18.5 16.88 18.66 34.863l-17.459-.087c-.76-12.18-1.18-22.583-1.2-34.776"/><path fill="#313437" d="M1519.75 396.191c8.215-.902 15.75-.264 23.954.063 4.112 6.35 6.904 10.959 10.406 17.647-5.833-.043-22.503.134-27.656-.673-1.13-6.06-3.962-11.591-6.703-17.037"/><path fill="#313437" d="M1205.645 160.996c3.412-.233 8.394-.963 10.956.976 2.231 5.075 5.073 25.129 1.39 28.912l-13.677-1.349c-.48-4.599-.91-9.204-1.28-13.813-.4-5.434-.881-10.677 2.61-14.726"/><path fill="#8c8b8b" d="M1039.262 196.906c11.736-.595 35.98 7.163 15.638 17.433-8.144.594-17.85.473-23.403-6.652-1.54-6.651 2.462-8.097 7.765-10.781"/><path fill="#ebeaeb" d="M1056.631 311.728c-3.832-4.013-7.804-8.006-4.472-13.433 8.094-5.418 29.156-1.603 28.866 9.65-1.61 3.024-5.073 4.952-8.245 5.917-.84.252-1.69.475-2.541.671-5.553-.606-8.255-1.352-13.608-2.805"/><path fill="#8c8b8b" d="M1045.925 221.684c5.333.38 22.083 2.225 19.501 12.392-.7 2.764-5.333 4.206-7.974 5.144-8.205-.057-18.07-1.091-22.032-9.68.22-6.394 5.042-6.878 10.505-7.856"/><path fill="#8c8b8b" d="M1050.948 270.811a90 90 0 0 1 3.032-.075c10.536-.114 30.987 5.226 15.689 17.669-8.315.608-23.884-1.123-24.024-11.866 1.17-3.062 2.632-3.798 5.303-5.728"/><path fill="#8c8b8b" d="M1045.245 246.967c9.906-.362 36.8.496 20.622 16.088-7.915 1.777-24.524.097-25.245-10.327.951-2.925 2.282-3.755 4.623-5.761"/><path fill="#313437" d="M1226.977 342.632c21.782.317 17.98 9.158 17.38 27.463-4.653-1.837-11.457-5.323-16.14-7.54-.9-7.484-1.13-12.368-1.24-19.923"/><path fill="#ebeaeb" d="M1256.543 211.822c10.736-.157 32.168 3.966 16.9 17.52-10.346.332-31.398-5.362-16.9-17.52"/><path fill="#ebeaeb" d="M1270.461 311.949c10.916-.332 28.696 4.456 15.209 17.465-10.106 2.253-28.246-4.931-15.209-17.465"/></svg>