<svg xmlns="http://www.w3.org/2000/svg" width="24" height="27" viewBox="0 0 24 27"><clipPath id="a"><path d="M0 0h24v27H0z"/></clipPath><g clip-path="url(#a)"><path fill="#fff" d="m1.05 11.897-.004-.032c-.132-.948.091-1.65.987-2.1.867-.435 1.75-.848 2.624-1.268l4.994-2.408 6.559-3.174 2.027-.974c.511-.245 1.085-.54 1.595-.746.815-.33 2.057.007 2.436.852.13.29.151.507.186.812.03.166.054.278.099.442.374 1.144.243 1.404-.078 2.537q-.21.737-.413 1.477a431 431 0 0 1-1.677 5.998 629 629 0 0 1-1.964 6.985c-.21.71-.434 1.711-.726 2.356-.471 1.039-2.065 1.522-3.042.958-.507-.27-.86-.82-1.217-1.276q-.592-.754-1.194-1.502c-.937-1.168-.835-.913-1.758.157-.801.927-1.61 1.862-2.418 2.785-.412.465-1.159 1.435-1.628 1.745-.655.381-1.537.464-2.226.137-.332-.158-.572-.406-.853-.603-1.003-.7-1.552-1.225-1.53-2.538-.02-.068-.057-.396-.068-.484l-.014-.08c-.124-.685-.091-1.323.388-1.87.464-.53.934-1.061 1.412-1.578.89-.965 1.74-1.985 2.637-2.941-.123-.06-.683-.198-.833-.236l-1.914-.48c-.28-.07-.833-.195-1.082-.297a2 2 0 0 1-.61-.388c-.469-.444-.577-.965-.601-1.575l-.008-.067c-.035-.206-.06-.416-.086-.624"/><path fill="#eefebc" d="M22.454 2.859c.03.166.054.278.099.442.374 1.144.243 1.404-.078 2.537q-.21.737-.413 1.477a431 431 0 0 1-1.677 5.998 629 629 0 0 1-1.964 6.985c-.21.71-.434 1.711-.726 2.356-.471 1.039-2.065 1.522-3.042.958-.507-.27-.86-.82-1.217-1.276q-.592-.754-1.194-1.502c-.937-1.168-.835-.913-1.758.157-.801.927-1.61 1.862-2.418 2.785-.412.465-1.159 1.435-1.628 1.745-.655.381-1.537.464-2.226.137-.332-.158-.572-.406-.853-.603-1.003-.7-1.552-1.225-1.53-2.538-.02-.068-.057-.396-.068-.484.1.068.213.342.304.437.294.313.65.588.999.842.261.19.584.474.877.608.64.306 1.882.247 2.397-.33 1.182-1.327 2.387-2.76 3.585-4.088.28-.31.715-.901 1.02-1.131.224-.124.408-.058.582.122.238.244.45.53.663.797q.634.794 1.254 1.6c.194.25.559.759.806.911.016.03.089.08.118.098.881.558 2.169.282 2.738-.594.077-.068.19-.28.221-.38.37-1.19.652-2.422.996-3.618l2.698-9.522 1.028-3.604c.094-.327.206-.65.3-.976.045-.152.085-.188.107-.346"/><path fill="#ff6368" d="M22.454 2.859c.03.166.054.278.099.442l-.012.025-.007.021c-.07.203-.099.516-.183.773-.424 1.302-.776 2.619-1.146 3.937l-2.477 8.807a299 299 0 0 1-.938 3.338c-.258.902-.373 1.947-1.316 2.397-.512.245-1.1.298-1.638.115-.764-.248-1.18-1.04-1.677-1.63-.107-.127-.245-.334-.364-.445-.237-.329-1.167-1.61-1.503-1.673-.116-.022-.239.043-.329.111-.326.248-.6.664-.87.976l-2.608 3.008c-.806.92-1.35 1.898-2.759 1.718a2.3 2.3 0 0 1-.733-.226c-.445-.223-1.577-1.105-1.895-1.488l-.131-.18c-.033-.05-.115-.3-.139-.368-.019-.068-.056-.396-.067-.484.1.068.213.342.304.437.294.313.65.588.999.842.261.19.584.474.877.608.64.306 1.882.247 2.397-.33 1.182-1.327 2.387-2.76 3.585-4.088.28-.31.715-.901 1.02-1.131.224-.124.408-.058.582.122.238.244.45.53.663.797q.634.794 1.254 1.6c.194.25.559.759.806.911.016.03.089.08.118.098.881.558 2.169.282 2.738-.594.077-.068.19-.28.221-.38.37-1.19.652-2.422.996-3.618l2.698-9.522 1.028-3.604c.094-.327.206-.65.3-.976.045-.152.085-.188.107-.346"/><path fill="#9bd800" d="M22.553 3.3c.374 1.145.243 1.405-.078 2.538q-.21.737-.413 1.477a431 431 0 0 1-1.677 5.998 629 629 0 0 1-1.964 6.985c-.21.71-.434 1.711-.726 2.356-.471 1.039-2.065 1.522-3.042.958-.507-.27-.86-.82-1.217-1.276q-.592-.754-1.194-1.502c-.937-1.168-.835-.913-1.758.157-.801.927-1.61 1.862-2.418 2.785-.412.465-1.159 1.435-1.628 1.745-.655.381-1.537.464-2.226.137-.332-.158-.572-.406-.853-.603-1.003-.7-1.552-1.225-1.53-2.538.023.069.105.319.138.369.09.286.144.512.318.763q.129.183.297.331c.303.274 1.15.897 1.485 1.102.688.42 1.92.27 2.504-.282.267-.232.542-.572.773-.84q.604-.703 1.198-1.413c.572-.685 1.207-1.377 1.798-2.04.766-.82.87-1.485 1.79-.325.675.853 1.317 1.851 2.076 2.622.54.548 1.689.687 2.352.297.237-.042.625-.42.77-.616q.2-.278.31-.602c.27-.796.472-1.617.714-2.423.618-2.055 1.145-4.146 1.737-6.207l1.61-5.691.498-1.79c.291-1.01.508-1.382.344-2.446z"/><path fill="#dffb8e" d="M2.098 23.065c.017.08.064.143.095.215.23.527.734.7 1.13 1.028l-.066.024c.085.098.263.151.365.223.04.028.108.114.158.158.184.16.401.276.635.34l-.035.046c.047.03.302-.058.397.074l-.175.012.048.035-.04-.04c.044.057.105.069.175.077.918.103 1.66-.387 2.24-1.066.21-.242.386-.593.6-.827.456-.495.867-1.014 1.334-1.497.229-.237.426-.588.69-.799l.01.018c-.032.056-.116.196-.138.249l.017.028c.164-.235.33-.424.491-.696.22-.33.536-.653.798-.953.85-.969 1.793 1.052 2.304 1.58.381.483.739.987 1.15 1.448.256.287.61.354.96.452l-.052-.003c.356.1.811.103 1.155-.05a.5.5 0 0 1 .214-.04c-.663.39-1.812.25-2.352-.297-.759-.77-1.4-1.77-2.077-2.622-.92-1.16-1.023-.496-1.789.326-.59.662-1.226 1.354-1.798 2.039q-.594.71-1.198 1.412c-.23.269-.506.61-.773.84-.585.552-1.816.702-2.504.283a15 15 0 0 1-1.485-1.102 2 2 0 0 1-.297-.331c-.174-.251-.228-.477-.318-.763z"/><path fill="#9bd800" d="m1.136 12.521.012.017c.224.312.142.33.486.645.592.43 1.185.511 1.882.69l2.316.595c.29.076.776.19 1.036.308-.062.082-.16.221-.231.287l-.101.099c-.088.106-.255.322-.352.402-.123-.06-.683-.198-.833-.236l-1.914-.48c-.28-.07-.833-.195-1.082-.297a2 2 0 0 1-.61-.388c-.469-.444-.577-.965-.601-1.575z"/><path fill="#eefebc" d="M6.637 15.063c-.197-.117-.817-.317-1.026-.331-.425-.03-.455.124-.838-.188.05-.04.166.044.24.012-.232-.166-.502-.077-.601-.132-.643-.364-2.621-.406-2.837-1.223l.059-.018c.592.43 1.185.511 1.882.69l2.316.595c.29.076.776.19 1.036.308-.062.082-.16.221-.231.287"/><path fill="#dffb8e" d="m1.136 12.521.012.017c.224.312.142.33.486.645l-.06.018c.217.817 2.195.86 2.838 1.223.099.055.37-.034.6.132-.073.032-.188-.052-.239-.012.383.312.413.158.838.188.21.014.829.214 1.026.33l-.101.1c-.975-.298-1.982-.52-2.964-.793-.455-.126-.99-.229-1.414-.411a1.76 1.76 0 0 1-.853-.887c-.049-.127-.107-.332-.161-.483z"/><path fill="#ff6368" d="M1.05 11.897c.211.285.337.58.658.77.347.207.753.28 1.14.384 1.025.276 2.066.5 3.083.805.49.147 1.233.194.937.92-.26-.118-.745-.232-1.036-.308l-2.316-.595c-.697-.179-1.29-.26-1.882-.69-.344-.315-.262-.333-.486-.645l-.012-.017c-.035-.206-.06-.416-.086-.624"/><path fill="#faa184" d="M10.53 18.592c.116-.214.209-.312.44-.395.11-.04.37-.034.448.032.544.46 1.085 1.355 1.509 1.9.361.466.72.81 1.014 1.293.037.08.099.129.162.19.062.064.114.106.145.189-.247-.152-.612-.66-.806-.911q-.619-.806-1.254-1.6c-.213-.267-.425-.553-.663-.797-.174-.18-.358-.246-.582-.122-.305.23-.74.82-1.02 1.131-1.198 1.328-2.403 2.761-3.585 4.088-.515.577-1.758.636-2.397.33-.293-.134-.616-.418-.877-.608-.348-.254-.705-.53-1-.842-.09-.095-.202-.369-.303-.437l-.014-.08c.192.117.302.493.563.69-.09-.17-.248-.31-.378-.544.13.113.291.309.414.408.517.415 1.516 1.284 2.157 1.365.68.086 1.539-.16 1.98-.696.065-.08.476-.573.515-.605.056.15-.161.22-.18.371.048-.009.05-.012.09-.056l2.744-3.14c.22-.253 1.023-1.259 1.254-1.401.09-.08.133-.04.223-.098l.002-.035a1 1 0 0 0-.377.118q-.09.135-.186.267z"/><path fill="#fff4f4" d="M10.53 18.592c-.037.123-.174.202-.278.308-.249.253-.382.618-.71.776-.034.016-.165.316-.223.36-.236.323-1.048 1.025-1.168 1.347l-.032-.005c-.056-.178.29-.432.353-.614.013-.038.264-.214.296-.266.078-.092.145-.214.219-.312q.224-.291.47-.563c.214-.242.426-.49.653-.72.112-.113.255-.21.357-.329.083-.097.117-.24.208-.328.073-.07.26-.111.359-.142.125-.04.18-.05.299.013.57.304 1.943 2.236 2.379 2.842.076.106.207.173.253.298l-.05.028c-.002.08.015.074.026.137-.294-.482-.653-.827-1.014-1.292-.424-.546-.965-1.44-1.509-1.901-.078-.066-.338-.072-.449-.032-.23.083-.323.18-.44.395"/><defs><linearGradient id="b" x1="664.52" x2="664.862" y1="531.337" y2="520.419" gradientUnits="userSpaceOnUse"><stop offset="0" stop-color="#fa9586"/><stop offset="1" stop-color="#f6e0c0"/></linearGradient></defs><path fill="url(#b)" d="M641.726 519.263c2.201.192 3.042.05 5.018 1.276 14.358 8.904 34.512 10.709 48.583.298 3.609-2.67 5.838-6.855 10.372-8.507 1.132 2.249-9.774 9.372-10.314 13.082 3.222-2.311 6.701-4.741 9.699-7.316 2.311-1.987 3.377-4.057 6.148-5.86-13.18 20.112-43.009 26.448-63.424 13.63-.674-.424-2.352-1.581-2.732-2.25-.721-1.915-1.911-2.875-3.35-4.353" transform="matrix(.04317 0 0 .04355 -13.597 -1.002)"/></g></svg>